<svg width="20" height="19" viewBox="0 0 20 19" fill="none" xmlns="http://www.w3.org/2000/svg">
<g filter="url(#filter0_d)">
<path d="M8.03541 1.78695C8.34268 0.882533 9.62184 0.882534 9.92911 1.78695L11.0994 5.23151C11.2372 5.63706 11.6179 5.90983 12.0462 5.90983H15.735C16.7145 5.90983 17.11 7.17213 16.3057 7.73105L13.3992 9.75057C13.033 10.005 12.8795 10.4712 13.023 10.8935L14.1511 14.2139C14.4614 15.1274 13.4259 15.9073 12.6336 15.3568L9.55288 13.2161C9.20981 12.9778 8.75471 12.9778 8.41164 13.2162L5.33093 15.3568C4.53862 15.9073 3.5031 15.1274 3.81346 14.2139L4.94154 10.8935C5.085 10.4712 4.93153 10.005 4.56531 9.75057L1.65887 7.73105C0.854493 7.17213 1.24999 5.90983 2.22949 5.90983H5.9183C6.34662 5.90983 6.72737 5.63706 6.86515 5.23151L8.03541 1.78695Z" fill="#FBCF3A"/>
</g>
<defs>
<filter id="filter0_d" x="0.2276" y="0.108639" width="19.5093" height="18.4314" filterUnits="userSpaceOnUse" color-interpolation-filters="sRGB">
<feFlood flood-opacity="0" result="BackgroundImageFix"/>
<feColorMatrix in="SourceAlpha" type="matrix" values="0 0 0 0 0 0 0 0 0 0 0 0 0 0 0 0 0 0 127 0"/>
<feOffset dx="1" dy="1"/>
<feGaussianBlur stdDeviation="1"/>
<feColorMatrix type="matrix" values="0 0 0 0 0 0 0 0 0 0 0 0 0 0 0 0 0 0 0.5 0"/>
<feBlend mode="normal" in2="BackgroundImageFix" result="effect1_dropShadow"/>
<feBlend mode="normal" in="SourceGraphic" in2="effect1_dropShadow" result="shape"/>
</filter>
</defs>
</svg>
