<svg width="28" height="28" viewBox="0 0 28 28" fill="none" xmlns="http://www.w3.org/2000/svg">
<path d="M26.1429 21.7143C26.1429 21.5893 26.1429 21.4643 26.0893 21.3393C25.9643 20.9643 25.0893 20.5714 24.7321 20.3929C23.7143 19.8214 22.6786 19.2679 21.6786 18.6786C21.2143 18.3929 20.6429 17.8571 20.0893 17.8571C19 17.8571 17.4107 21.0893 16.4464 21.0893C15.9643 21.0893 15.3393 20.6429 14.9107 20.3929C11.6607 18.5893 9.41072 16.3393 7.60714 13.0893C7.35714 12.6607 6.91071 12.0357 6.91071 11.5536C6.91071 10.5893 10.1429 9 10.1429 7.91071C10.1429 7.35714 9.60714 6.78571 9.32143 6.32143C8.73214 5.32143 8.17857 4.28571 7.60714 3.26786C7.42857 2.91071 7.03571 2.03571 6.66071 1.91071C6.53571 1.85714 6.41071 1.85714 6.28571 1.85714C5.64286 1.85714 4.39286 2.14286 3.80357 2.41071C2.92857 2.78571 2.35714 3.78571 1.91071 4.58928C1.33929 5.64286 1 6.71428 1 7.91071C1 9.57143 1.67857 11.0714 2.23214 12.5893C2.625 13.6786 3.10714 14.7321 3.71429 15.7143C5.58929 18.75 9.25 22.4107 12.2857 24.2857C13.2679 24.8929 14.3214 25.375 15.4107 25.7679C16.9286 26.3214 18.4286 27 20.0893 27C21.2857 27 22.3571 26.6607 23.4107 26.0893C24.2143 25.6429 25.2143 25.0714 25.5893 24.1964C25.8571 23.6071 26.1429 22.3571 26.1429 21.7143Z" fill="#FCFCFB"/>
<path d="M26.0893 21.3393L25.1406 21.6555L25.1538 21.695L25.1701 21.7332L26.0893 21.3393ZM24.7321 20.3929L24.2426 21.2648L24.2635 21.2766L24.2849 21.2873L24.7321 20.3929ZM21.6786 18.6786L21.1545 19.5302L21.1626 19.5352L21.1709 19.5401L21.6786 18.6786ZM14.9107 20.3929L15.4146 19.5291L15.4053 19.5237L15.396 19.5185L14.9107 20.3929ZM7.60714 13.0893L8.48153 12.604L8.47632 12.5947L8.47092 12.5854L7.60714 13.0893ZM9.32143 6.32143L8.45989 6.82912L8.46475 6.83737L8.46977 6.84553L9.32143 6.32143ZM7.60714 3.26786L6.71272 3.71507L6.72343 3.7365L6.73516 3.75739L7.60714 3.26786ZM6.66071 1.91071L6.26679 2.82986L6.30503 2.84624L6.34449 2.8594L6.66071 1.91071ZM3.80357 2.41071L4.19749 3.32986L4.20748 3.32558L4.21737 3.32108L3.80357 2.41071ZM1.91071 4.58928L1.03651 4.10362L1.03168 4.11252L1.91071 4.58928ZM2.23214 12.5893L3.17284 12.25L3.17161 12.2467L2.23214 12.5893ZM3.71429 15.7143L4.56508 15.1888L4.56488 15.1885L3.71429 15.7143ZM12.2857 24.2857L12.8115 23.4351L12.8112 23.4349L12.2857 24.2857ZM15.4107 25.7679L15.7533 24.8284L15.75 24.8272L15.4107 25.7679ZM23.4107 26.0893L23.8875 26.9684L23.8964 26.9634L23.4107 26.0893ZM25.5893 24.1964L24.6789 23.7826L24.6744 23.7925L24.6701 23.8025L25.5893 24.1964ZM27.1429 21.7143C27.1429 21.6143 27.1546 21.2865 27.0084 20.9454L25.1701 21.7332C25.1595 21.7084 25.1526 21.6858 25.1481 21.6674C25.1438 21.6494 25.1423 21.6371 25.1419 21.6333C25.1415 21.6301 25.142 21.6332 25.1424 21.6473C25.1426 21.6542 25.1427 21.6628 25.1428 21.6741C25.1429 21.6858 25.1429 21.6981 25.1429 21.7143H27.1429ZM27.038 21.0231C26.9223 20.676 26.6834 20.4376 26.5345 20.3069C26.3658 20.1587 26.1769 20.0337 26.0123 19.9349C25.6896 19.7413 25.3218 19.5696 25.1794 19.4984L24.2849 21.2873C24.4997 21.3947 24.7479 21.5087 24.9833 21.6499C25.0977 21.7186 25.1733 21.7732 25.2149 21.8098C25.2764 21.8637 25.1938 21.8151 25.1406 21.6555L27.038 21.0231ZM25.2217 19.5209C24.1781 18.935 23.1757 18.4001 22.1863 17.817L21.1709 19.5401C22.1814 20.1356 23.2505 20.7079 24.2426 21.2648L25.2217 19.5209ZM22.2027 17.8269C22.1197 17.7758 22.0248 17.7091 21.8906 17.6139C21.7669 17.5262 21.612 17.4161 21.4493 17.3139C21.1501 17.1259 20.6644 16.8571 20.0893 16.8571V18.8571C20.0678 18.8571 20.1446 18.8562 20.3855 19.0075C20.4929 19.075 20.6025 19.1524 20.7339 19.2455C20.8547 19.3311 21.0053 19.4384 21.1545 19.5302L22.2027 17.8269ZM20.0893 16.8571C19.7091 16.8571 19.3868 16.9957 19.1509 17.1351C18.9105 17.2771 18.6933 17.4596 18.5054 17.639C18.1337 17.9941 17.7627 18.4499 17.4437 18.8441C17.1026 19.2655 16.8171 19.621 16.5605 19.8788C16.4341 20.0058 16.3469 20.0756 16.2955 20.1085C16.2345 20.1476 16.2956 20.0893 16.4464 20.0893V22.0893C16.8384 22.0893 17.1601 21.9299 17.3748 21.7923C17.5992 21.6485 17.8028 21.4658 17.978 21.2897C18.3246 20.9415 18.6853 20.489 18.9983 20.1024C19.3333 19.6885 19.6241 19.3363 19.8869 19.0853C20.0162 18.9617 20.1094 18.8917 20.1682 18.857C20.2315 18.8196 20.1971 18.8571 20.0893 18.8571V16.8571ZM16.4464 20.0893C16.4735 20.0893 16.4588 20.0941 16.3885 20.07C16.3216 20.047 16.2349 20.0084 16.126 19.9509C16.0184 19.8939 15.9057 19.8273 15.784 19.7532C15.6731 19.6856 15.5325 19.5979 15.4146 19.5291L14.4068 21.2566C14.543 21.3361 14.9067 21.5685 15.1909 21.7188C15.4796 21.8715 15.9432 22.0893 16.4464 22.0893V20.0893ZM15.396 19.5185C12.3095 17.8057 10.1943 15.6905 8.48153 12.604L6.73276 13.5745C8.6271 16.9881 11.0119 19.3729 14.4255 21.2672L15.396 19.5185ZM8.47092 12.5854C8.40213 12.4675 8.31438 12.3269 8.24684 12.216C8.1727 12.0943 8.1061 11.9816 8.04914 11.874C7.99158 11.7651 7.95302 11.6784 7.93004 11.6115C7.90587 11.5412 7.91071 11.5265 7.91071 11.5536H5.91071C5.91071 12.0568 6.12853 12.5204 6.28121 12.8091C6.43153 13.0933 6.66395 13.457 6.74336 13.5932L8.47092 12.5854ZM7.91071 11.5536C7.91071 11.7044 7.85236 11.7655 7.89147 11.7045C7.92441 11.6531 7.99423 11.5659 8.12121 11.4395C8.37903 11.1829 8.73451 10.8974 9.15592 10.5563C9.5501 10.2373 10.0059 9.86627 10.361 9.49455C10.5404 9.3067 10.7229 9.08947 10.8649 8.8491C11.0043 8.61323 11.1429 8.29086 11.1429 7.91071H9.14286C9.14286 7.80289 9.18042 7.76846 9.14301 7.83177C9.10827 7.89058 9.03828 7.98375 8.9147 8.11315C8.66371 8.37592 8.31151 8.66675 7.89765 9.00172C7.51102 9.31466 7.05847 9.67541 6.71026 10.022C6.53423 10.1972 6.35153 10.4008 6.20772 10.6252C6.07007 10.8399 5.91071 11.1616 5.91071 11.5536H7.91071ZM11.1429 7.91071C11.1429 7.33565 10.8741 6.84994 10.6861 6.5507C10.5839 6.38803 10.4738 6.2331 10.3861 6.10941C10.2909 5.9752 10.2242 5.88032 10.1731 5.79733L8.46977 6.84553C8.56156 6.99468 8.66888 7.14533 8.75453 7.26614C8.84765 7.39748 8.925 7.50705 8.99247 7.61447C9.14381 7.85542 9.14286 7.93221 9.14286 7.91071H11.1429ZM10.183 5.81374C9.5999 4.82429 9.06502 3.82195 8.47913 2.77832L6.73516 3.75739C7.29212 4.74948 7.86439 5.81857 8.45989 6.82912L10.183 5.81374ZM8.50157 2.82064C8.43037 2.67824 8.25869 2.31041 8.06508 1.98774C7.96633 1.82315 7.8413 1.63424 7.69315 1.4655C7.56238 1.31656 7.32399 1.07771 6.97694 0.96203L6.34449 2.8594C6.18494 2.80621 6.13628 2.72361 6.19022 2.78505C6.22678 2.82669 6.28144 2.9023 6.3501 3.01673C6.49132 3.25209 6.60534 3.50033 6.71272 3.71507L8.50157 2.82064ZM7.05464 0.991569C6.7135 0.845365 6.38572 0.857141 6.28571 0.857141V2.85714C6.3019 2.85714 6.31417 2.85715 6.32589 2.85722C6.33724 2.8573 6.3458 2.85744 6.35269 2.85762C6.36676 2.858 6.36993 2.85849 6.36668 2.85815C6.3629 2.85774 6.35061 2.85623 6.33261 2.85189C6.31415 2.84744 6.29156 2.84047 6.26679 2.82986L7.05464 0.991569ZM6.28571 0.857141C5.85441 0.857141 5.29695 0.94725 4.80515 1.05785C4.31047 1.16909 3.77476 1.32535 3.38977 1.50035L4.21737 3.32108C4.42167 3.22822 4.8056 3.10769 5.24396 3.00912C5.68519 2.90989 6.07416 2.85714 6.28571 2.85714V0.857141ZM3.40965 1.49157C2.75322 1.7729 2.26605 2.26232 1.90612 2.72657C1.54511 3.19223 1.25706 3.70673 1.03656 4.10364L2.78487 5.07493C3.0108 4.66826 3.23168 4.28098 3.48674 3.95199C3.74288 3.6216 3.97893 3.42353 4.19749 3.32986L3.40965 1.49157ZM1.03168 4.11252C0.40078 5.27575 0 6.51048 0 7.91071H2C2 6.91809 2.27779 6.00997 2.78975 5.06605L1.03168 4.11252ZM0 7.91071C0 9.79733 0.777435 11.5192 1.29267 12.9319L3.17161 12.2467C2.57971 10.6237 2 9.34553 2 7.91071H0ZM1.29145 12.9286C1.7028 14.0691 2.21312 15.1877 2.86369 16.2401L4.56488 15.1885C4.00116 14.2766 3.5472 13.288 3.17283 12.25L1.29145 12.9286ZM2.86349 16.2398C4.82017 19.4077 8.59226 23.1798 11.7602 25.1365L12.8112 23.4349C9.90774 21.6416 6.3584 18.0923 4.56508 15.1888L2.86349 16.2398ZM11.7599 25.1363C12.8123 25.7869 13.9309 26.2972 15.0714 26.7085L15.75 24.8272C14.712 24.4528 13.7234 23.9988 12.8115 23.4351L11.7599 25.1363ZM15.0681 26.7073C16.4808 27.2226 18.2027 28 20.0893 28V26C18.6545 26 17.3763 25.4203 15.7533 24.8284L15.0681 26.7073ZM20.0893 28C21.4895 28 22.7243 27.5992 23.8875 26.9683L22.934 25.2103C21.99 25.7222 21.0819 26 20.0893 26V28ZM23.8964 26.9634C24.2933 26.7429 24.8078 26.4549 25.2734 26.0939C25.7377 25.734 26.2271 25.2468 26.5084 24.5903L24.6701 23.8025C24.5765 24.0211 24.3784 24.2571 24.048 24.5133C23.719 24.7683 23.3317 24.9892 22.9251 25.2151L23.8964 26.9634ZM26.4997 24.6102C26.6746 24.2252 26.8309 23.6895 26.9422 23.1948C27.0528 22.703 27.1429 22.1456 27.1429 21.7143H25.1429C25.1429 21.9258 25.0901 22.3148 24.9909 22.756C24.8923 23.1944 24.7718 23.5783 24.6789 23.7826L26.4997 24.6102Z" fill="#434343"/>
</svg>
