<svg width="167" height="167" viewBox="0 0 167 167" fill="none" xmlns="http://www.w3.org/2000/svg">
    <g filter="url(#filter0_d)">
        <ellipse cx="80.4511" cy="80.5" rx="70.4511" ry="70.5" fill="#4D4145"/>
        <path d="M148.902 80.5C148.902 118.333 118.254 149 80.4511 149C42.6479 149 12 118.333 12 80.5C12 42.6672 42.6479 12 80.4511 12C118.254 12 148.902 42.6672 148.902 80.5Z" stroke="#DAC95A" stroke-width="4"/>
    </g>
    <path fill-rule="evenodd" clip-rule="evenodd" d="M63.139 47.7365L72.1724 49.4698L72.7608 40.9236C72.6124 40.9584 72.4576 40.9768 72.2985 40.9768C71.1816 40.9768 70.2759 40.0711 70.2759 38.9542C70.2759 38.2326 70.654 37.5992 71.2228 37.2412L71.2261 37.2391L71.2412 37.2298L71.2563 37.2206L71.2716 37.2115L71.2747 37.2097L71.3024 37.1936L71.3179 37.1849L71.3196 37.184L71.3485 37.1682L71.3492 37.1679L71.365 37.1596L71.3908 37.1463L71.3968 37.1434L71.4128 37.1354L71.4288 37.1277L71.4451 37.1201L71.4613 37.1125L71.4763 37.1058L71.5 37.0954L71.5224 37.0859L71.5271 37.084L71.5437 37.0772L71.5474 37.0758L71.568 37.0676L71.5984 37.0561L71.607 37.053C71.6196 37.0484 71.6322 37.0439 71.6449 37.0396L71.6579 37.0352L71.6904 37.0246L71.7044 37.0203L71.737 37.0107L71.7514 37.0065L71.785 36.9974L71.7987 36.9939C71.8124 36.9904 71.8261 36.987 71.8399 36.9838L71.845 36.9827C71.86 36.9792 71.8751 36.9759 71.8902 36.9728L71.8904 36.9728L71.8909 36.9727L71.892 36.9724C71.906 36.9696 71.92 36.9669 71.934 36.9644L71.9457 36.9623C71.9767 36.9568 72.0079 36.9521 72.0393 36.9481L72.0439 36.9475C72.0597 36.9454 72.0755 36.9436 72.0914 36.942H72.0917C72.1079 36.9404 72.1242 36.9389 72.1406 36.9376L72.1441 36.9374C72.1951 36.9335 72.2466 36.9316 72.2985 36.9316C73.4154 36.9316 74.3211 37.8373 74.3211 38.9542C74.3211 39.4187 74.2109 39.8884 73.901 40.1882L73.9007 40.1884C73.8352 40.2732 73.7632 40.3528 73.6853 40.4262L81.8994 47.4787C81.9688 47.5384 82.0394 47.5903 82.111 47.6353C82.1557 47.396 82.3121 47.1333 82.6168 46.8835C82.9132 46.6405 88.5309 41.4552 90.3587 39.7673C89.7609 39.4158 89.3596 38.766 89.3596 38.0226C89.3596 37.301 89.7377 36.6676 90.3065 36.3097L90.3098 36.3076L90.3249 36.2982L90.3401 36.289L90.3553 36.2799L90.3584 36.2781L90.3861 36.2621L90.4017 36.2533L90.4033 36.2525L90.4323 36.2367L90.4329 36.2363L90.4487 36.228L90.4745 36.2148L90.4804 36.2118L90.4965 36.2039L90.5126 36.1961L90.5287 36.1885L90.545 36.181L90.56 36.1743L90.5838 36.1638L90.6061 36.1544L90.6107 36.1525L90.6274 36.1457L90.6311 36.1442L90.6517 36.1361L90.6821 36.1246L90.6907 36.1214C90.7032 36.1169 90.7159 36.1123 90.7286 36.108L90.7417 36.1036L90.7742 36.0931L90.7881 36.0888L90.8207 36.0791L90.8351 36.075L90.8687 36.0658L90.8824 36.0623C90.8961 36.0588 90.9098 36.0554 90.9236 36.0522L90.9287 36.0511C90.9437 36.0476 90.9588 36.0444 90.9739 36.0413L90.9741 36.0412L90.9746 36.0411L90.9757 36.0409C90.9897 36.038 91.0037 36.0354 91.0177 36.0328L91.0294 36.0307C91.0604 36.0253 91.0916 36.0205 91.123 36.0165L91.1276 36.0159C91.1434 36.0139 91.1592 36.012 91.1751 36.0105H91.1754C91.1916 36.0088 91.2079 36.0073 91.2243 36.0061L91.2278 36.0058C91.2788 36.0019 91.3303 36 91.3822 36C92.4991 36 93.4048 36.9057 93.4048 38.0226C93.4048 38.4872 93.2946 38.9568 92.9847 39.2566L92.9845 39.2568C92.6146 39.7363 92.0344 40.0453 91.3822 40.0453C91.2241 40.0453 91.0702 40.0271 90.9226 39.9927L90.8445 49.3304L100.22 48.3596C100.094 48.0958 100.023 47.8004 100.023 47.4885C100.023 46.7669 100.401 46.1335 100.97 45.7755L100.973 45.7735L100.988 45.7641L101.003 45.7549L101.019 45.7458L101.022 45.744L101.05 45.728L101.065 45.7192L101.067 45.7183L101.096 45.7026L101.096 45.7022L101.112 45.6939L101.138 45.6807L101.144 45.6777L101.16 45.6698L101.176 45.662L101.192 45.6544L101.208 45.6469L101.223 45.6401L101.247 45.6297L101.269 45.6203L101.274 45.6183L101.291 45.6115L101.294 45.6101L101.315 45.602L101.346 45.5904L101.354 45.5873C101.367 45.5827 101.379 45.5782 101.392 45.5739L101.405 45.5695L101.438 45.559L101.451 45.5547L101.484 45.545L101.498 45.5408L101.532 45.5317L101.546 45.5282C101.559 45.5247 101.573 45.5213 101.587 45.5181L101.592 45.517C101.607 45.5135 101.622 45.5102 101.637 45.5072L101.638 45.5071L101.638 45.507L101.639 45.5068C101.653 45.5039 101.667 45.5013 101.681 45.4987L101.693 45.4966C101.724 45.4911 101.755 45.4864 101.786 45.4824L101.791 45.4818C101.807 45.4798 101.823 45.4779 101.839 45.4763H101.839C101.855 45.4747 101.871 45.4732 101.888 45.4719L101.891 45.4717C101.942 45.4678 101.994 45.4659 102.046 45.4659C103.162 45.4659 104.068 46.3716 104.068 47.4885C104.068 47.953 103.958 48.4227 103.648 48.7225L103.648 48.7227C103.278 49.2022 102.698 49.5111 102.046 49.5111C101.548 49.5111 101.092 49.3309 100.739 49.0323L92.8956 59.0162C85.2954 55.5003 77.4684 55.6665 70.3619 58.9592L62.771 48.339C62.4 48.7868 61.8397 49.0721 61.2128 49.0721C60.0959 49.0721 59.1902 48.1664 59.1902 47.0495C59.1902 46.3279 59.5684 45.6945 60.1372 45.3365L60.1405 45.3344L60.1556 45.3251L60.1707 45.3159L60.186 45.3068L60.189 45.305C61.4357 44.5843 63.2355 45.3353 63.2355 47.0495C63.2355 47.2847 63.2072 47.5214 63.139 47.7365ZM115.617 112.127L107.315 112.108L107.396 69.9649C107.396 69.9649 106.389 69.87 103.958 69.9269C101.527 69.9839 99.8043 72.3186 99.8043 72.3186V65.587L123.125 65.6132L123.142 72.3946C123.142 72.3946 121.058 69.9839 118.627 69.9269C116.196 69.87 115.641 69.9376 115.641 69.9376L115.617 112.127ZM56.0801 90.9888L47.0414 90.9951L46.9287 90.9952L46.7834 90.9953C46.7834 90.9953 46.6217 91.0524 46.6217 91.3766C46.6217 91.7009 46.5837 107.491 46.5837 107.491L62.3664 107.531L62.3902 111.924L38 111.899L38.038 65.5778L62.4572 65.5489L62.5048 70.0557L46.8785 70.0367L46.8785 70.0368C46.598 70.0365 46.6265 70.0804 46.6265 70.0804L46.6407 86.5138L56.1513 86.5043L56.0801 90.9888ZM96.7238 65.587L96.8554 112.108L88.3281 112.07L88.3661 65.5968L96.7238 65.587ZM64.9293 112.062L84.8161 112.096L84.7766 107.739L73.4196 107.682V65.6348L65.0442 65.6538L64.9293 112.062Z" fill="#FECC00"/>
    <path fill-rule="evenodd" clip-rule="evenodd" d="M39.5244 67.09H60.8602V68.4739L46.4454 68.5161C45.6504 68.5184 44.9084 69.1245 44.9084 69.9195V86.5874C44.9084 87.3824 45.5589 88.0329 46.3539 88.0329H54.4661V89.2874H46.396C45.5778 89.2874 44.9084 89.9569 44.9084 90.7751V107.929C44.9084 108.747 45.5778 109.417 46.396 109.417H60.8602V110.446H39.5244V67.09ZM66.4508 67.09H71.8133V108.394C71.8133 108.957 72.2734 109.417 72.8358 109.417H83.1087V110.446H66.4508V67.09ZM89.8403 67.2041H95.0887V110.446H89.8403V67.2041ZM108.666 67.2041H113.914H121.469V69.8534C120.961 68.5019 117.388 67.8533 115.396 68.8019C114.874 69.0504 114.252 69.6398 114.251 70.2282L114.209 110.446H108.666V69.8534H108.655C107.545 67.5683 101.743 68.1574 101.106 69.8534V67.2041H108.666Z" fill="url(#paint0_linear)"/>
    <path fill-rule="evenodd" clip-rule="evenodd" d="M119.329 67.2041H113.914H108.666H101.106V69.8534C101.743 68.1574 107.545 67.5683 108.655 69.8534H108.666V80.9631C110.68 79.343 112.552 77.4897 114.246 75.3941L114.251 70.2282C114.252 69.6398 114.874 69.0504 115.396 68.8019C116.323 68.3605 117.592 68.2649 118.736 68.4251C118.939 68.0241 119.136 67.6171 119.329 67.2041ZM95.0887 87.9773V67.2041H89.8403V89.1805C91.6178 88.8831 93.3712 88.4831 95.0887 87.9773ZM71.8133 88.87V67.09H66.4508V87.5502C68.2146 88.0804 70.0061 88.5214 71.8133 88.87ZM44.9084 74.7502V69.9195C44.9084 69.1245 45.6504 68.5184 46.4454 68.5161L60.8602 68.4739V67.09H39.5244V67.888C41.0647 70.3633 42.8766 72.6552 44.9084 74.7502Z" fill="#FEFEFE" fill-opacity="0.5"/>
    <path fill-rule="evenodd" clip-rule="evenodd" d="M46.8122 68.302C46.8122 68.302 46.0157 68.1631 45.3915 68.6712C44.7672 69.1793 44.9082 70.1233 44.9082 70.1233V86.4155C44.9082 86.4155 44.9321 87.8611 46.5843 87.8611C48.2366 87.8611 54.4659 87.8611 54.4659 87.8611L56.1514 86.5043L46.6408 86.5138L46.6265 70.0804C46.6265 70.0804 46.5981 70.0365 46.8786 70.0368C46.3888 69.8084 46.0644 68.8096 46.8122 68.302Z" fill="url(#paint1_linear)"/>
    <path fill-rule="evenodd" clip-rule="evenodd" d="M71.025 57.4676L65.2656 49.7124C65.2656 49.7124 71.4161 50.9827 72.3277 50.8687C73.2393 50.7548 73.8375 49.9856 73.8661 49.2734C73.8945 48.5613 74.1509 42.8637 74.1509 42.8637L80.0194 48.0485C81.0879 48.9925 83.0945 48.9046 84.0931 47.906C84.5204 47.4787 89.4488 42.351 89.4488 42.351L89.2737 49.3365C89.2737 49.3365 89.0462 51.0428 91.1649 50.8437C93.2837 50.6446 98.3084 50.1566 98.3084 50.1566L92.0411 57.3924C85.0357 54.2028 78.0303 54.4227 71.025 57.4676Z" fill="url(#paint2_linear)"/>
    <path fill-rule="evenodd" clip-rule="evenodd" d="M74.1505 42.8637L72.793 40.453L73.4383 40.2144L81.8991 47.4787C82.636 48.1114 83.5037 47.8794 84.337 47.6564C84.2189 47.7779 84.1342 47.8645 84.0927 47.906C83.094 48.9046 81.0874 48.9925 80.019 48.0484L74.1505 42.8637Z" fill="url(#paint3_linear)"/>
    <path fill-rule="evenodd" clip-rule="evenodd" d="M90.9294 39.2406L89.4491 42.351C89.4491 42.351 84.5207 47.4787 84.0934 47.906C83.9049 48.0946 83.6805 48.2506 83.4332 48.3733C82.3551 48.8684 81.5112 47.7905 82.6173 46.8835C82.9716 46.593 90.9294 39.2406 90.9294 39.2406Z" fill="url(#paint4_linear)"/>
    <path fill-rule="evenodd" clip-rule="evenodd" d="M101.36 48.2415L92.8957 59.0161C92.8957 59.0161 92.8428 58.3659 92.6011 57.9819C92.3593 57.598 92.041 57.3923 92.041 57.3923L98.3083 50.1565L101.36 48.2415Z" fill="url(#paint5_linear)"/>
    <path fill-rule="evenodd" clip-rule="evenodd" d="M72.1728 49.4698L62.2139 47.559L65.2659 49.7124C65.2659 49.7124 71.4163 50.9827 72.3279 50.8687C73.2395 50.7548 73.8378 49.9856 73.8663 49.2734L73.8765 49.0285L73.1773 49.2795L72.1728 49.4698Z" fill="url(#paint6_linear)"/>
    <path fill-rule="evenodd" clip-rule="evenodd" d="M62.2139 47.559L70.3623 58.9592L71.0252 57.4676L65.2659 49.7124L62.2139 47.559Z" fill="url(#paint7_linear)"/>
    <path fill-rule="evenodd" clip-rule="evenodd" d="M72.7927 40.453L72.1719 49.4698C72.1719 49.4698 72.1932 49.9587 72.8379 49.9871C73.4818 50.0153 73.8525 49.5352 73.8757 49.0255L73.8759 49.0232L73.876 49.0203L73.8771 48.9956C73.9292 47.7851 74.1079 43.8065 74.1439 43.0051L74.144 43.0038L74.1474 42.9279L74.1474 42.9273L74.1486 42.9001L74.1487 42.8998L74.1495 42.8801V42.8799L74.1501 42.8678V42.8678L74.1503 42.8637L72.7927 40.453Z" fill="url(#paint8_linear)"/>
    <path fill-rule="evenodd" clip-rule="evenodd" d="M92.896 59.0163C92.896 59.0163 92.9655 58.2887 92.5034 57.8406C92.0413 57.3925 92.0414 57.3925 92.0414 57.3925C85.036 54.2029 78.0305 54.4228 71.0252 57.4677L70.3623 58.9593C77.4688 55.6665 85.2958 55.5004 92.896 59.0163Z" fill="url(#paint9_linear)"/>
    <path fill-rule="evenodd" clip-rule="evenodd" d="M39.5243 66.9182L38.0381 65.578L62.4573 65.5491L60.86 66.9182H39.5243Z" fill="url(#paint10_linear)"/>
    <path fill-rule="evenodd" clip-rule="evenodd" d="M62.4567 65.549L62.5043 70.0557L60.8594 68.302V66.9181L62.4567 65.549Z" fill="url(#paint11_linear)"/>
    <path fill-rule="evenodd" clip-rule="evenodd" d="M62.5046 70.0557L46.826 70.0367C46.826 70.0367 46.3702 69.9305 46.3259 69.2397C46.2816 68.5489 46.8119 68.302 46.8119 68.302H60.8597L62.5046 70.0557Z" fill="url(#paint12_linear)"/>
    <path fill-rule="evenodd" clip-rule="evenodd" d="M62.3665 107.53L60.86 109.245H46.8502H46.3959C45.5777 109.245 44.9082 108.575 44.9082 107.757V106.752V90.6032C44.9082 89.7849 45.5777 89.1155 46.3959 89.1155H47.0402L47.0415 90.995L46.7835 90.9952C46.7835 90.9952 46.6218 91.0524 46.6218 91.3765C46.6218 91.7008 46.5838 107.491 46.5838 107.491L62.3665 107.53Z" fill="url(#paint13_linear)"/>
    <path fill-rule="evenodd" clip-rule="evenodd" d="M62.3659 107.531L62.3897 111.924L60.8594 110.274V109.245L62.3659 107.531Z" fill="url(#paint14_linear)"/>
    <path fill-rule="evenodd" clip-rule="evenodd" d="M62.3902 111.924L38 111.899L39.5242 110.274H60.8599L62.3902 111.924Z" fill="url(#paint15_linear)"/>
    <path fill-rule="evenodd" clip-rule="evenodd" d="M65.0446 65.6538L64.9297 112.062L66.4509 110.274V66.9181L65.0446 65.6538Z" fill="url(#paint16_linear)"/>
    <path fill-rule="evenodd" clip-rule="evenodd" d="M73.4191 65.6348L71.8125 66.918V108.158V108.222C71.8125 108.785 72.2727 109.245 72.8351 109.245H83.1079L84.7761 107.739L73.4191 107.682V65.6348Z" fill="url(#paint17_linear)"/>
    <path fill-rule="evenodd" clip-rule="evenodd" d="M84.8165 112.096L83.1088 110.274H66.4509L64.9297 112.062L84.8165 112.096Z" fill="url(#paint18_linear)"/>
    <path fill-rule="evenodd" clip-rule="evenodd" d="M96.7242 65.5869L96.8558 112.107L95.0889 110.274V67.0321L96.7242 65.5869Z" fill="url(#paint19_linear)"/>
    <path fill-rule="evenodd" clip-rule="evenodd" d="M101.106 67.0321L99.8047 65.5869V72.3185L101.106 69.6815V67.0321Z" fill="url(#paint20_linear)"/>
    <path fill-rule="evenodd" clip-rule="evenodd" d="M101.106 69.6815L99.8047 72.3186C99.8047 72.3186 101.528 69.9839 103.959 69.9269C106.39 69.8699 107.396 69.9649 107.396 69.9649L107.301 112.127L108.666 110.274V69.6815H108.655C107.598 67.5066 102.292 67.9354 101.233 69.4442C101.155 69.5887 101.106 69.6815 101.106 69.6815Z" fill="url(#paint21_linear)"/>
    <path fill-rule="evenodd" clip-rule="evenodd" d="M121.469 67.0323L123.125 65.6133L123.142 72.3946L121.469 69.661V67.0323Z" fill="url(#paint22_linear)"/>
    <path fill-rule="evenodd" clip-rule="evenodd" d="M56.0796 90.9888C52.9807 90.991 49.8818 90.9931 46.7829 90.9953C46.0019 90.7001 45.8948 89.4588 46.7544 89.1156H54.4653L56.0796 90.9888Z" fill="url(#paint23_linear)"/>
    <path fill-rule="evenodd" clip-rule="evenodd" d="M108.666 110.274H114.209L115.617 112.127L107.301 112.108L108.666 110.274Z" fill="url(#paint24_linear)"/>
    <path fill-rule="evenodd" clip-rule="evenodd" d="M102.046 45.4658C103.163 45.4658 104.069 46.3715 104.069 47.4885C104.069 48.6054 103.163 49.5111 102.046 49.5111C100.929 49.5111 100.023 48.6054 100.023 47.4885C100.023 46.3715 100.929 45.4658 102.046 45.4658Z" fill="url(#paint25_radial)"/>
    <path fill-rule="evenodd" clip-rule="evenodd" d="M61.2126 45.0269C62.3295 45.0269 63.2353 45.9326 63.2353 47.0495C63.2353 47.514 63.1251 47.9837 62.8151 48.2834C61.9764 49.0946 60.9143 48.1072 61.2126 47.0495C61.5273 45.934 60.1146 45.357 60.1104 45.3536C60.4275 45.147 60.806 45.0269 61.2126 45.0269Z" fill="url(#paint26_linear)"/>
    <path fill-rule="evenodd" clip-rule="evenodd" d="M121.479 69.6816L123.141 72.3946C123.141 72.3946 121.057 69.9839 118.626 69.9269C116.196 69.87 115.641 69.9377 115.641 69.9377C115.168 69.5919 115.085 68.8687 115.541 68.5648C117.558 67.7133 120.973 68.3625 121.468 69.6816V69.6609L121.479 69.6816Z" fill="url(#paint27_linear)"/>
    <defs>
        <filter id="filter0_d" x="0" y="0" width="166.902" height="167" filterUnits="userSpaceOnUse" color-interpolation-filters="sRGB">
            <feFlood flood-opacity="0" result="BackgroundImageFix"/>
            <feColorMatrix in="SourceAlpha" type="matrix" values="0 0 0 0 0 0 0 0 0 0 0 0 0 0 0 0 0 0 127 0"/>
            <feOffset dx="3" dy="3"/>
            <feGaussianBlur stdDeviation="6.5"/>
            <feColorMatrix type="matrix" values="0 0 0 0 0 0 0 0 0 0 0 0 0 0 0 0 0 0 0.25 0"/>
            <feBlend mode="normal" in2="BackgroundImageFix" result="effect1_dropShadow"/>
            <feBlend mode="normal" in="SourceGraphic" in2="effect1_dropShadow" result="shape"/>
        </filter>
        <linearGradient id="paint0_linear" x1="95.7816" y1="114.086" x2="95.7816" y2="66.4815" gradientUnits="userSpaceOnUse">
            <stop stop-color="#F7AB05"/>
            <stop offset="0.219608" stop-color="#FFD900"/>
            <stop offset="0.321569" stop-color="#FFD500"/>
            <stop offset="0.509804" stop-color="#FAB600"/>
            <stop offset="0.760784" stop-color="#FFDB00"/>
            <stop offset="1" stop-color="#FCC200"/>
        </linearGradient>
        <linearGradient id="paint1_linear" x1="53.7497" y1="90.744" x2="33.3614" y2="53.0565" gradientUnits="userSpaceOnUse">
            <stop stop-color="#E9AB33"/>
            <stop offset="1" stop-color="#FFD629"/>
        </linearGradient>
        <linearGradient id="paint2_linear" x1="59.852" y1="54.9578" x2="103.855" y2="53.6635" gradientUnits="userSpaceOnUse">
            <stop stop-color="#F18B17"/>
            <stop offset="0.470588" stop-color="#FFED00"/>
            <stop offset="0.529412" stop-color="#FFED00"/>
            <stop offset="1" stop-color="#F18B17"/>
        </linearGradient>
        <linearGradient id="paint3_linear" x1="77.2884" y1="35.4479" x2="79.7507" y2="54.0524" gradientUnits="userSpaceOnUse">
            <stop stop-color="#E59C15"/>
            <stop offset="1" stop-color="#FFF278"/>
        </linearGradient>
        <linearGradient id="paint4_linear" x1="87.9715" y1="43.4459" x2="79.7778" y2="53.6152" gradientUnits="userSpaceOnUse">
            <stop stop-color="#E69B14"/>
            <stop offset="1" stop-color="#FBBE00"/>
        </linearGradient>
        <linearGradient id="paint5_linear" x1="76.4076" y1="51.2734" x2="60.278" y2="48.9366" gradientUnits="userSpaceOnUse">
            <stop stop-color="#F0BD40"/>
            <stop offset="1" stop-color="#FFF7B5"/>
        </linearGradient>
        <linearGradient id="paint6_linear" x1="69.5827" y1="44.7957" x2="66.7555" y2="50.8605" gradientUnits="userSpaceOnUse">
            <stop stop-color="#EAAB2B"/>
            <stop offset="1" stop-color="#FFD732"/>
        </linearGradient>
        <linearGradient id="paint7_linear" x1="67.2901" y1="54.6609" x2="71.8627" y2="59.342" gradientUnits="userSpaceOnUse">
            <stop stop-color="#E49A16"/>
            <stop offset="1" stop-color="#D67F26"/>
        </linearGradient>
        <linearGradient id="paint8_linear" x1="73.2318" y1="46.4007" x2="68.3989" y2="62.122" gradientUnits="userSpaceOnUse">
            <stop stop-color="#E59019"/>
            <stop offset="1" stop-color="#F9B101"/>
        </linearGradient>
        <linearGradient id="paint9_linear" x1="67.2572" y1="59.9348" x2="92.7472" y2="59.9805" gradientUnits="userSpaceOnUse">
            <stop stop-color="#E48D1A"/>
            <stop offset="1" stop-color="#E6AD3B"/>
        </linearGradient>
        <linearGradient id="paint10_linear" x1="51.327" y1="65.8655" x2="51.3554" y2="67.3586" gradientUnits="userSpaceOnUse">
            <stop stop-color="#F3BF42"/>
            <stop offset="1" stop-color="#FECC00"/>
        </linearGradient>
        <linearGradient id="paint11_linear" x1="63.4371" y1="67.8059" x2="60.5199" y2="67.7976" gradientUnits="userSpaceOnUse">
            <stop stop-color="#F3CC68"/>
            <stop offset="1" stop-color="#FFE369"/>
        </linearGradient>
        <linearGradient id="paint12_linear" x1="46.6326" y1="77.3081" x2="68.9665" y2="69.8982" gradientUnits="userSpaceOnUse">
            <stop stop-color="#DF7320"/>
            <stop offset="1" stop-color="#FFCF00"/>
        </linearGradient>
        <linearGradient id="paint13_linear" x1="61.2149" y1="98.5118" x2="37.1612" y2="103.984" gradientUnits="userSpaceOnUse">
            <stop stop-color="#E79B34"/>
            <stop offset="1" stop-color="#FFD629"/>
        </linearGradient>
        <linearGradient id="paint14_linear" x1="63.2576" y1="109.731" x2="60.5436" y2="109.723" gradientUnits="userSpaceOnUse">
            <stop stop-color="#F0BF51"/>
            <stop offset="1" stop-color="#FFDC4D"/>
        </linearGradient>
        <linearGradient id="paint15_linear" x1="41.1508" y1="111.902" x2="70.2813" y2="109.793" gradientUnits="userSpaceOnUse">
            <stop stop-color="#E47F1D"/>
            <stop offset="1" stop-color="#FECC00"/>
        </linearGradient>
        <linearGradient id="paint16_linear" x1="66.4227" y1="108.358" x2="66.4494" y2="73.6376" gradientUnits="userSpaceOnUse">
            <stop stop-color="#E2821D"/>
            <stop offset="0.631373" stop-color="#E4871C"/>
            <stop offset="1" stop-color="#F9B500"/>
        </linearGradient>
        <linearGradient id="paint17_linear" x1="74.44" y1="90.3648" x2="71.8125" y2="90.3078" gradientUnits="userSpaceOnUse">
            <stop stop-color="#ECB845"/>
            <stop offset="1" stop-color="#FFDA43"/>
        </linearGradient>
        <linearGradient id="paint18_linear" x1="64.5211" y1="113.56" x2="104.649" y2="109.912" gradientUnits="userSpaceOnUse">
            <stop stop-color="#DF7720"/>
            <stop offset="1" stop-color="#FFED00"/>
        </linearGradient>
        <linearGradient id="paint19_linear" x1="97.8578" y1="88.8834" x2="94.7242" y2="88.7979" gradientUnits="userSpaceOnUse">
            <stop stop-color="#EDB33C"/>
            <stop offset="1" stop-color="#FFD313"/>
        </linearGradient>
        <linearGradient id="paint20_linear" x1="101.082" y1="71.7813" x2="100.919" y2="65.8602" gradientUnits="userSpaceOnUse">
            <stop stop-color="#E69616"/>
            <stop offset="0.631373" stop-color="#E89A13"/>
            <stop offset="1" stop-color="#DD9518"/>
        </linearGradient>
        <linearGradient id="paint21_linear" x1="108.502" y1="108.619" x2="108.657" y2="75.7416" gradientUnits="userSpaceOnUse">
            <stop stop-color="#E2821D"/>
            <stop offset="0.631373" stop-color="#E4871C"/>
            <stop offset="1" stop-color="#E79717"/>
        </linearGradient>
        <linearGradient id="paint22_linear" x1="123.762" y1="68.3155" x2="121.103" y2="68.2965" gradientUnits="userSpaceOnUse">
            <stop stop-color="#EEBE5B"/>
            <stop offset="1" stop-color="#FFDF5D"/>
        </linearGradient>
        <linearGradient id="paint23_linear" x1="46.6152" y1="94.0679" x2="60.4656" y2="81.5756" gradientUnits="userSpaceOnUse">
            <stop stop-color="#DD7021"/>
            <stop offset="1" stop-color="#FFED00"/>
        </linearGradient>
        <linearGradient id="paint24_linear" x1="108.315" y1="112.093" x2="117.728" y2="111.358" gradientUnits="userSpaceOnUse">
            <stop stop-color="#E2811D"/>
            <stop offset="1" stop-color="#FECC00"/>
        </linearGradient>
        <radialGradient id="paint25_radial" cx="0" cy="0" r="1" gradientUnits="userSpaceOnUse" gradientTransform="translate(100.671 47.3681) rotate(31.2844) scale(1.42852)">
            <stop stop-color="#E18F1E"/>
            <stop offset="0.34902" stop-color="#E89D12"/>
            <stop offset="1" stop-color="#FFED00"/>
        </radialGradient>
        <linearGradient id="paint26_linear" x1="61.7271" y1="45.2659" x2="62.8419" y2="48.3577" gradientUnits="userSpaceOnUse">
            <stop stop-color="#FDD18B"/>
            <stop offset="0.541176" stop-color="#FFF9CD"/>
            <stop offset="1" stop-color="#F59F0D"/>
        </linearGradient>
        <linearGradient id="paint27_linear" x1="118.615" y1="67.7647" x2="123.591" y2="72.8165" gradientUnits="userSpaceOnUse">
            <stop stop-color="#ECA72B"/>
            <stop offset="1" stop-color="#F9BB12"/>
        </linearGradient>
    </defs>
</svg>
