<svg width="21" height="21" viewBox="0 0 21 21" fill="none" xmlns="http://www.w3.org/2000/svg">
<g clip-path="url(#clip0)">
<path d="M15.4462 0.00422536L12.7844 0C9.79397 0 7.86144 1.96162 7.86144 4.99775V7.30205H5.18514C4.95388 7.30205 4.7666 7.48754 4.7666 7.71634V11.055C4.7666 11.2838 4.95409 11.4691 5.18514 11.4691H7.86144V19.8936C7.86144 20.1224 8.04871 20.3077 8.27998 20.3077H11.7718C12.003 20.3077 12.1903 20.1222 12.1903 19.8936V11.4691H15.3195C15.5508 11.4691 15.7381 11.2838 15.7381 11.055L15.7394 7.71634C15.7394 7.60648 15.6952 7.50127 15.6168 7.42353C15.5384 7.34578 15.4316 7.30205 15.3206 7.30205H12.1903V5.34867C12.1903 4.40979 12.4165 3.93317 13.6526 3.93317L15.4457 3.93254C15.6768 3.93254 15.8641 3.74705 15.8641 3.51845V0.41831C15.8641 0.18993 15.677 0.00464789 15.4462 0.00422536Z" fill="#555AE4"/>
</g>
<defs>
<clipPath id="clip0">
<rect width="20.5263" height="20.3077" fill="white" transform="translate(0.0527344)"/>
</clipPath>
</defs>
</svg>
