<svg width="12" height="21" viewBox="0 0 12 21" fill="none" xmlns="http://www.w3.org/2000/svg">
<path d="M11.4462 0.00422536L8.78439 0C5.79397 0 3.86144 1.96162 3.86144 4.99775V7.30205H1.18514C0.953876 7.30205 0.766602 7.48754 0.766602 7.71634V11.055C0.766602 11.2838 0.95409 11.4691 1.18514 11.4691H3.86144V19.8936C3.86144 20.1224 4.04871 20.3077 4.27998 20.3077H7.77178C8.00305 20.3077 8.19032 20.1222 8.19032 19.8936V11.4691H11.3195C11.5508 11.4691 11.7381 11.2838 11.7381 11.055L11.7394 7.71634C11.7394 7.60648 11.6952 7.50127 11.6168 7.42353C11.5384 7.34578 11.4316 7.30205 11.3206 7.30205H8.19032V5.34867C8.19032 4.40979 8.41646 3.93317 9.65264 3.93317L11.4457 3.93254C11.6768 3.93254 11.8641 3.74705 11.8641 3.51845V0.41831C11.8641 0.18993 11.677 0.00464789 11.4462 0.00422536Z" fill="white"/>
</svg>
