<svg width="14" height="14" viewBox="0 0 14 14" fill="none" xmlns="http://www.w3.org/2000/svg">
<path d="M11.8864 7.83717C10.9438 7.61631 9.73852 7.03922 9.30206 6.32273C9.05769 5.92395 9.03216 5.47412 9.22952 5.08994C9.24046 5.06927 9.25951 5.03806 9.27369 5.01375C9.26235 4.92905 9.2822 4.81679 9.3434 4.67049C9.34786 4.66077 9.34826 4.65955 9.3515 4.65266H4.50747C4.5099 4.65834 4.5099 4.65834 4.51314 4.66563C4.51314 4.66563 4.51355 4.66604 4.51355 4.66644C4.62216 4.83584 4.71699 4.98741 4.76764 5.08507C4.96825 5.47452 4.94231 5.92395 4.69875 6.32313C4.26107 7.04044 3.05624 7.61712 2.11281 7.83798L1.85223 12.2079C1.82386 12.6873 2.13793 13.0788 2.55048 13.0788H11.4491C11.8617 13.0788 12.1753 12.6869 12.1466 12.2079L11.8864 7.83717ZM5.54533 10.8466H4.70969C4.55569 10.8466 4.43088 10.7214 4.43088 10.5678C4.43088 10.4142 4.55569 10.289 4.70969 10.289H5.54533C5.69892 10.289 5.82415 10.4142 5.82415 10.5678C5.82415 10.7214 5.69892 10.8466 5.54533 10.8466ZM5.54533 9.78403H4.70969C4.55569 9.78403 4.43088 9.65921 4.43088 9.50561C4.43088 9.35081 4.55569 9.2268 4.70969 9.2268H5.54533C5.69892 9.2268 5.82415 9.35081 5.82415 9.50561C5.82415 9.65921 5.69892 9.78403 5.54533 9.78403ZM5.54533 8.72144H4.70969C4.55569 8.72144 4.43088 8.59662 4.43088 8.44263C4.43088 8.28903 4.55569 8.16381 4.70969 8.16381H5.54533C5.69892 8.16381 5.82415 8.28903 5.82415 8.44263C5.82415 8.59622 5.69892 8.72144 5.54533 8.72144ZM7.41802 10.8466H6.58279C6.42879 10.8466 6.30397 10.7214 6.30397 10.5678C6.30397 10.4142 6.4292 10.289 6.58279 10.289H7.41843C7.57202 10.289 7.69725 10.4142 7.69725 10.5678C7.69643 10.7214 7.57162 10.8466 7.41802 10.8466ZM7.41802 9.78403H6.58279C6.42879 9.78403 6.30397 9.65921 6.30397 9.50561C6.30397 9.35081 6.4292 9.2268 6.58279 9.2268H7.41843C7.57202 9.2268 7.69725 9.35081 7.69725 9.50561C7.69643 9.65921 7.57162 9.78403 7.41802 9.78403ZM7.41802 8.72144H6.58279C6.42879 8.72144 6.30397 8.59662 6.30397 8.44263C6.30397 8.28903 6.4292 8.16381 6.58279 8.16381H7.41843C7.57202 8.16381 7.69725 8.28903 7.69725 8.44263C7.69643 8.59622 7.57162 8.72144 7.41802 8.72144ZM9.29031 10.8466H8.45467C8.30108 10.8466 8.17626 10.7214 8.17626 10.5678C8.17626 10.4142 8.30108 10.289 8.45467 10.289H9.29031C9.44471 10.289 9.56913 10.4142 9.56913 10.5678C9.56913 10.7214 9.44512 10.8466 9.29031 10.8466ZM9.29031 9.78403H8.45467C8.30108 9.78403 8.17626 9.65921 8.17626 9.50561C8.17626 9.35081 8.30108 9.2268 8.45467 9.2268H9.29031C9.44471 9.2268 9.56913 9.35081 9.56913 9.50561C9.56913 9.65921 9.44512 9.78403 9.29031 9.78403ZM9.29031 8.72144H8.45467C8.30108 8.72144 8.17626 8.59662 8.17626 8.44263C8.17626 8.28903 8.30108 8.16381 8.45467 8.16381H9.29031C9.44471 8.16381 9.56913 8.28903 9.56913 8.44263C9.56913 8.59622 9.44512 8.72144 9.29031 8.72144ZM13.9297 5.31445C13.9123 5.40198 13.9115 5.49317 13.877 5.57624C13.6756 6.06336 13.2979 6.46659 13.0199 6.91562C12.6612 7.48865 9.6133 6.25343 10.006 5.48871C10.1539 5.20584 10.731 4.4245 10.7744 4.11043C10.8141 3.82999 10.4429 3.61075 10.1 3.58279C9.19548 3.50943 8.04009 3.5759 7.08004 3.58198V3.58279C7.05451 3.58279 7.02614 3.58238 6.9998 3.58238C6.97386 3.58238 6.94549 3.58279 6.91996 3.58279V3.58198C5.95991 3.5759 4.80452 3.50984 3.89999 3.58279C3.55714 3.61075 3.18593 3.82999 3.22524 4.11043C3.269 4.4245 3.84568 5.20584 3.9936 5.48871C4.38711 6.25343 1.33917 7.48865 0.98052 6.91562C0.701703 6.46659 0.324814 6.06336 0.122997 5.57624C0.088955 5.49317 0.0881445 5.40198 0.0707184 5.31445C-0.376685 3.31653 1.34647 1.27809 3.94133 1.06898C4.93218 0.988737 5.92546 0.943349 6.91996 0.925517V0.920654C6.94671 0.92106 6.97305 0.922681 6.9998 0.923086C7.02614 0.922681 7.05289 0.92106 7.08004 0.920654V0.925517C8.07373 0.943349 9.06701 0.988737 10.0587 1.06898C12.6531 1.27769 14.3763 3.31694 13.9297 5.31445Z" fill="white"/>
</svg>
