<svg width="26" height="26" viewBox="0 0 26 26" fill="none" xmlns="http://www.w3.org/2000/svg">
<path d="M12.9989 15.6025C14.4332 15.6025 15.6025 14.4353 15.6025 13C15.6025 12.4334 15.4171 11.9103 15.1103 11.483C14.6374 10.8274 13.8687 10.3975 13.0005 10.3975C12.1318 10.3975 11.3636 10.8268 10.8897 11.4825C10.5818 11.9097 10.398 12.4329 10.3975 12.9995C10.3959 14.4348 11.5641 15.6025 12.9989 15.6025Z" fill="#DE9B38"/>
<path d="M18.6805 9.81671V7.63521V7.31055L18.3543 7.31159L16.1738 7.3184L16.1822 9.82509L18.6805 9.81671Z" fill="#DE9B38"/>
<path d="M13 0C5.83183 0 0 5.83183 0 13C0 20.1676 5.83183 26 13 26C20.1676 26 26 20.1676 26 13C26 5.83183 20.1687 0 13 0ZM20.3933 11.483V17.5363C20.3933 19.113 19.1115 20.3944 17.5358 20.3944H8.46419C6.88802 20.3944 5.60666 19.113 5.60666 17.5363V11.483V8.46472C5.60666 6.88854 6.88802 5.60719 8.46419 5.60719H17.5353C19.1115 5.60719 20.3933 6.88854 20.3933 8.46472V11.483Z" fill="#DE9B38"/>
<path d="M17.0433 13.0004C17.0433 15.2296 15.2294 17.0445 12.9992 17.0445C10.769 17.0445 8.95563 15.2296 8.95563 13.0004C8.95563 12.4642 9.06245 11.9515 9.25306 11.4834H7.0459V17.5367C7.0459 18.3191 7.68108 18.9527 8.46288 18.9527H17.534C18.3147 18.9527 18.951 18.3191 18.951 17.5367V11.4834H16.7427C16.9349 11.9515 17.0433 12.4642 17.0433 13.0004Z" fill="#DE9B38"/>
</svg>
