<svg width="21" height="21" viewBox="0 0 21 21" fill="none" xmlns="http://www.w3.org/2000/svg">
<g clip-path="url(#clip0)">
<path d="M3.10728 0H18.3643C19.8133 0 20.9988 1.06131 20.9988 2.60636V17.7013C20.9988 19.2464 19.8133 20.3077 18.3643 20.3077H3.10728C1.65793 20.3077 0.472656 19.2464 0.472656 17.7013V2.60636C0.472656 1.06131 1.65793 0 3.10728 0ZM15.4252 2.25627C14.9168 2.25627 14.5014 2.66745 14.5014 3.17058V5.35888C14.5014 5.8618 14.9168 6.27319 15.4252 6.27319H17.7452C18.2535 6.27319 18.6693 5.8618 18.6693 5.35888V3.17058C18.6693 2.66745 18.2535 2.25627 17.7452 2.25627H15.4252ZM18.679 8.58805H16.8724C17.0433 9.14018 17.1359 9.72505 17.1359 10.3301C17.1359 13.708 14.2789 16.4461 10.7553 16.4461C7.23194 16.4461 4.37539 13.708 4.37539 10.3301C4.37539 9.72463 4.4677 9.13997 4.63883 8.58805H2.75364V17.1663C2.75364 17.6102 3.12077 17.9736 3.56968 17.9736H17.8634C18.3123 17.9736 18.6794 17.6104 18.6794 17.1663V8.58805H18.679ZM10.7551 6.15788C8.47854 6.15788 6.63276 7.92708 6.63276 10.1097C6.63276 12.2924 8.47854 14.0616 10.7551 14.0616C13.0319 14.0616 14.8779 12.2924 14.8779 10.1097C14.8779 7.92708 13.0321 6.15788 10.7551 6.15788Z" fill="white"/>
</g>
<defs>
<clipPath id="clip0">
<rect width="20.5263" height="20.3077" fill="white" transform="translate(0.472656)"/>
</clipPath>
</defs>
</svg>
