<svg width="20" height="19" viewBox="0 0 20 19" fill="none" xmlns="http://www.w3.org/2000/svg">
<g clip-path="url(#clip0)">
<path d="M4.33057 7.22876H6.92792V14.9597H4.33057V7.22876Z" fill="#555AE4"/>
<path d="M5.6106 6.17367H5.62774C6.53385 6.17367 7.09729 5.5798 7.09729 4.83753C7.08016 4.0789 6.53385 3.50183 5.64472 3.50183C4.75574 3.50183 4.17456 4.0789 4.17456 4.83753C4.17456 5.5798 4.73936 6.17367 5.6106 6.17367Z" fill="#555AE4"/>
<path d="M10.9629 14.9597V10.642C10.9629 10.4103 10.9808 10.1808 11.0492 10.0156C11.2372 9.55314 11.6639 9.07569 12.382 9.07569C13.3222 9.07569 13.6976 9.7848 13.6976 10.8236V14.9596H16.2956V10.5263C16.2956 8.15187 15.014 7.04724 13.3045 7.04724C11.9243 7.04724 11.3081 7.79873 10.9629 8.3242V8.34948H10.9459C10.9504 8.34115 10.9578 8.33268 10.9629 8.3242V7.22879H8.3645C8.39937 7.95396 8.3645 14.9596 8.3645 14.9596H10.9629V14.9597Z" fill="#555AE4"/>
<path d="M0.904297 0V18.4615H19.5646V0H0.904297ZM18.4103 17.3196H2.05854V1.14195H18.4103V17.3196Z" fill="#555AE4"/>
</g>
<defs>
<clipPath id="clip0">
<rect width="18.6603" height="18.4615" fill="white" transform="translate(0.904297)"/>
</clipPath>
</defs>
</svg>
