<svg width="20" height="19" viewBox="0 0 20 19" fill="none" xmlns="http://www.w3.org/2000/svg">
<g clip-path="url(#clip0)">
<path d="M4.33057 7.22876H6.92792V14.9597H4.33057V7.22876Z" fill="white"/>
<path d="M5.61048 6.17355H5.62761C6.53373 6.17355 7.09717 5.57967 7.09717 4.8374C7.08004 4.07878 6.53373 3.50171 5.6446 3.50171C4.75562 3.50171 4.17444 4.07878 4.17444 4.8374C4.17444 5.57967 4.73924 6.17355 5.61048 6.17355Z" fill="white"/>
<path d="M10.9628 14.9596V10.6419C10.9628 10.4102 10.9807 10.1806 11.0491 10.0154C11.2371 9.55302 11.6637 9.07557 12.3818 9.07557C13.3221 9.07557 13.6975 9.78468 13.6975 10.8234V14.9594H16.2955V10.5262C16.2955 8.15175 15.0139 7.04712 13.3043 7.04712C11.9242 7.04712 11.308 7.79861 10.9628 8.32408V8.34936H10.9458C10.9503 8.34103 10.9577 8.33256 10.9628 8.32408V7.22867H8.36438C8.39925 7.95384 8.36438 14.9594 8.36438 14.9594H10.9628V14.9596Z" fill="white"/>
<path d="M0.904297 0V18.4615H19.5646V0H0.904297ZM18.4103 17.3196H2.05854V1.14195H18.4103V17.3196Z" fill="white"/>
</g>
<defs>
<clipPath id="clip0">
<rect width="18.6603" height="18.4615" fill="white" transform="translate(0.904297)"/>
</clipPath>
</defs>
</svg>
