<svg width="14" height="14" viewBox="0 0 14 14" fill="none" xmlns="http://www.w3.org/2000/svg">
<path d="M13.6865 11.0641L11.5244 8.90183C11.0938 8.47291 10.3806 8.48594 9.93496 8.93175L8.8457 10.0208C8.77688 9.98285 8.70565 9.94323 8.63076 9.9012C7.9429 9.52007 7.00145 8.99767 6.01076 8.00627C5.01714 7.01277 4.49427 6.06987 4.11197 5.38157C4.07163 5.30865 4.03298 5.23834 3.99481 5.17157L4.72586 4.4416L5.08528 4.08174C5.53161 3.63529 5.54392 2.92233 5.11428 2.49217L2.9522 0.329609C2.52256 -0.0999508 1.80908 -0.0869192 1.36275 0.359534L0.753398 0.972381L0.770049 0.988912C0.565726 1.24962 0.394988 1.55032 0.26793 1.87458C0.150807 2.18323 0.077886 2.47777 0.0445428 2.77291C-0.240946 5.13968 0.840597 7.30272 3.77576 10.2379C7.83306 14.2949 11.1027 13.9885 11.2438 13.9735C11.551 13.9368 11.8454 13.8634 12.1446 13.7472C12.466 13.6216 12.7665 13.4511 13.0271 13.2472L13.0404 13.259L13.6577 12.6546C14.1031 12.2082 14.1159 11.495 13.6865 11.0641Z" fill="white"/>
</svg>
