<svg width="25" height="24" viewBox="0 0 25 24" fill="none" xmlns="http://www.w3.org/2000/svg">
<g clip-path="url(#clip0)">
<path d="M24.0419 17.3671C23.9767 17.2591 23.5734 16.392 21.6326 14.6099C19.6008 12.7438 19.8737 13.0468 22.3209 9.82005C23.8114 7.8549 24.4073 6.65481 24.2208 6.14178C24.0434 5.65274 22.9472 5.78175 22.9472 5.78175L19.3021 5.80275C19.3021 5.80275 19.0322 5.76675 18.8305 5.88526C18.6349 6.00227 18.5091 6.27229 18.5091 6.27229C18.5091 6.27229 17.9314 7.7934 17.1611 9.08649C15.5372 11.8152 14.8867 11.9592 14.6214 11.7897C14.0043 11.3952 14.1589 10.2026 14.1589 9.35652C14.1589 6.71182 14.5638 5.60924 13.3689 5.32422C12.9717 5.22971 12.6806 5.1667 11.6662 5.1562C10.3652 5.1427 9.26292 5.1607 8.63974 5.46223C8.22428 5.66324 7.90435 6.11177 8.09995 6.13728C8.34103 6.16878 8.88689 6.28279 9.17649 6.67282C9.55101 7.17535 9.53736 8.30644 9.53736 8.30644C9.53736 8.30644 9.75267 11.4192 9.03548 11.8062C8.5427 12.0717 7.86796 11.5302 6.41993 9.05349C5.67848 7.7859 5.11747 6.38329 5.11747 6.38329C5.11747 6.38329 5.00981 6.12228 4.81725 5.98276C4.58375 5.81325 4.25623 5.75925 4.25623 5.75925L0.790065 5.78025C0.790065 5.78025 0.269988 5.79525 0.0789398 6.01877C-0.0908812 6.21828 0.0652935 6.62931 0.0652935 6.62931C0.0652935 6.62931 2.7794 12.9103 5.85134 16.077C8.67006 18.9797 11.8694 18.7892 11.8694 18.7892H13.3189C13.3189 18.7892 13.7571 18.7412 13.98 18.5027C14.1862 18.2837 14.1786 17.8726 14.1786 17.8726C14.1786 17.8726 14.1498 15.948 15.0535 15.6645C15.9436 15.3855 17.0868 17.5246 18.2983 18.3482C19.2141 18.9707 19.9101 18.8342 19.9101 18.8342L23.1503 18.7892C23.1503 18.7892 24.8455 18.6857 24.0419 17.3671Z" fill="#555AE4"/>
</g>
<defs>
<clipPath id="clip0">
<rect width="24.2584" height="24" fill="white"/>
</clipPath>
</defs>
</svg>
