<svg width="25" height="24" viewBox="0 0 25 24" fill="none" xmlns="http://www.w3.org/2000/svg">
<g clip-path="url(#clip0)">
<path d="M24.042 17.3671C23.9768 17.2591 23.5735 16.392 21.6327 14.6099C19.6009 12.7438 19.8738 13.0468 22.3211 9.82005C23.8115 7.8549 24.4074 6.65481 24.2209 6.14178C24.0435 5.65274 22.9473 5.78175 22.9473 5.78175L19.3022 5.80275C19.3022 5.80275 19.0323 5.76675 18.8306 5.88526C18.635 6.00227 18.5092 6.27229 18.5092 6.27229C18.5092 6.27229 17.9315 7.7934 17.1612 9.08649C15.5373 11.8152 14.8868 11.9592 14.6215 11.7897C14.0044 11.3952 14.159 10.2026 14.159 9.35652C14.159 6.71182 14.5639 5.60924 13.3691 5.32422C12.9718 5.22971 12.6807 5.1667 11.6663 5.1562C10.3654 5.1427 9.26304 5.1607 8.63986 5.46223C8.22441 5.66324 7.90447 6.11177 8.10007 6.13728C8.34116 6.16878 8.88701 6.28279 9.17662 6.67282C9.55113 7.17535 9.53749 8.30644 9.53749 8.30644C9.53749 8.30644 9.75279 11.4192 9.0356 11.8062C8.54282 12.0717 7.86808 11.5302 6.42006 9.05349C5.67861 7.7859 5.11759 6.38329 5.11759 6.38329C5.11759 6.38329 5.00994 6.12228 4.81737 5.98276C4.58387 5.81325 4.25636 5.75925 4.25636 5.75925L0.790187 5.78025C0.790187 5.78025 0.270111 5.79525 0.0790619 6.01877C-0.0907591 6.21828 0.0654156 6.62931 0.0654156 6.62931C0.0654156 6.62931 2.77952 12.9103 5.85146 16.077C8.67019 18.9797 11.8695 18.7892 11.8695 18.7892H13.319C13.319 18.7892 13.7572 18.7412 13.9801 18.5027C14.1863 18.2837 14.1788 17.8726 14.1788 17.8726C14.1788 17.8726 14.1499 15.948 15.0536 15.6645C15.9437 15.3855 17.0869 17.5246 18.2984 18.3482C19.2143 18.9707 19.9102 18.8342 19.9102 18.8342L23.1505 18.7892C23.1505 18.7892 24.8456 18.6857 24.042 17.3671Z" fill="white"/>
</g>
<defs>
<clipPath id="clip0">
<rect width="24.2584" height="24" fill="white"/>
</clipPath>
</defs>
</svg>
