<svg width="25" height="14" viewBox="0 0 25 14" fill="none" xmlns="http://www.w3.org/2000/svg">
    <path d="M24.042 12.3671C23.9768 12.2591 23.5735 11.392 21.6327 9.6099C19.6009 7.74377 19.8738 8.04679 22.3211 4.82005C23.8115 2.8549 24.4074 1.65481 24.2209 1.14178C24.0435 0.65274 22.9473 0.78175 22.9473 0.78175L19.3022 0.802751C19.3022 0.802751 19.0323 0.766749 18.8306 0.885258C18.635 1.00227 18.5092 1.27229 18.5092 1.27229C18.5092 1.27229 17.9315 2.7934 17.1612 4.08649C15.5373 6.8152 14.8868 6.95921 14.6215 6.7897C14.0044 6.39517 14.159 5.20258 14.159 4.35652C14.159 1.71182 14.5639 0.609237 13.3691 0.324216C12.9718 0.229709 12.6807 0.166704 11.6663 0.156203C10.3654 0.142702 9.26304 0.160704 8.63986 0.462226C8.22441 0.663241 7.90447 1.11177 8.10007 1.13728C8.34116 1.16878 8.88701 1.28279 9.17662 1.67282C9.55113 2.17535 9.53749 3.30644 9.53749 3.30644C9.53749 3.30644 9.75279 6.41917 9.0356 6.8062C8.54282 7.07172 7.86808 6.53018 6.42006 4.05349C5.67861 2.7859 5.11759 1.38329 5.11759 1.38329C5.11759 1.38329 5.00994 1.12228 4.81737 0.982765C4.58387 0.813252 4.25636 0.759248 4.25636 0.759248L0.790187 0.78025C0.790187 0.78025 0.270111 0.795251 0.0790619 1.01877C-0.0907591 1.21828 0.0654156 1.62931 0.0654156 1.62931C0.0654156 1.62931 2.77952 7.91028 5.85146 11.077C8.67019 13.9797 11.8695 13.7892 11.8695 13.7892H13.319C13.319 13.7892 13.7572 13.7412 13.9801 13.5027C14.1863 13.2837 14.1788 12.8726 14.1788 12.8726C14.1788 12.8726 14.1499 10.948 15.0536 10.6645C15.9437 10.3855 17.0869 12.5246 18.2984 13.3482C19.2143 13.9707 19.9102 13.8342 19.9102 13.8342L23.1505 13.7892C23.1505 13.7892 24.8456 13.6857 24.042 12.3671Z" fill="white"/>
</svg>
