<svg width="26" height="24" viewBox="0 0 26 24" fill="none" xmlns="http://www.w3.org/2000/svg">
<g clip-path="url(#clip0)">
<path d="M20.0113 17.5552H18.6801L18.6863 16.7901C18.6863 16.4501 18.9685 16.172 19.3132 16.172H19.3981C19.7436 16.172 20.0267 16.4501 20.0267 16.7901L20.0113 17.5552ZM15.0178 15.9157C14.6801 15.9157 14.4038 16.1403 14.4038 16.4152V20.136C14.4038 20.4104 14.6801 20.6344 15.0178 20.6344C15.3569 20.6344 15.6335 20.4104 15.6335 20.136V16.4152C15.6335 16.14 15.3569 15.9157 15.0178 15.9157ZM23.1274 13.8344V20.9128C23.1274 22.6107 21.6393 24 19.8202 24H6.2196C4.39996 24 2.91211 22.6107 2.91211 20.9128V13.8344C2.91211 12.1365 4.39996 10.7469 6.2196 10.7469H19.8202C21.6393 10.7469 23.1274 12.1365 23.1274 13.8344ZM7.12687 21.6813L7.12579 14.2251L8.81175 14.2256V13.1208L4.31748 13.1141V14.2003L5.72042 14.2043V21.6813H7.12687ZM12.1807 15.3357H10.7751V19.3173C10.7751 19.8933 10.8104 20.1813 10.7729 20.2829C10.6586 20.5917 10.1449 20.9197 9.94461 20.3163C9.91065 20.2107 9.94057 19.892 9.94003 19.3448L9.93437 15.3357H8.53655L8.54086 19.2819C8.54194 19.8867 8.52711 20.3376 8.54571 20.5429C8.57994 20.9048 8.56781 21.3267 8.90716 21.5677C9.5395 22.0184 10.7516 21.5005 11.0548 20.8563L11.0521 21.6784L12.181 21.6797L12.1807 15.3357ZM16.6774 19.8952L16.6744 16.5813C16.6733 15.3184 15.7184 14.5621 14.4222 15.584L14.4278 13.1203L13.0238 13.1224L13.0171 21.6264L14.1718 21.6099L14.2769 21.0803C15.7521 22.4192 16.6795 21.5016 16.6774 19.8952ZM21.0765 19.456L20.0226 19.4616C20.0221 19.5029 20.0205 19.5507 20.0199 19.6027V20.1845C20.0199 20.496 19.7598 20.7496 19.4439 20.7496H19.2375C18.921 20.7496 18.6609 20.496 18.6609 20.1845V20.12V19.48V18.6541H21.0744V17.7555C21.0744 17.0987 21.0574 16.4421 21.0024 16.0667C20.8296 14.8789 19.1445 14.6904 18.2933 15.2984C18.0262 15.4883 17.8221 15.7424 17.7035 16.0837C17.5838 16.4253 17.5243 16.892 17.5243 17.4848V19.4608C17.5248 22.7456 21.5576 22.2813 21.0765 19.456ZM15.6701 8.72853C15.7426 8.90293 15.8553 9.04427 16.0081 9.15093C16.1591 9.256 16.3521 9.3088 16.5833 9.3088C16.786 9.3088 16.9655 9.25467 17.1219 9.14293C17.2776 9.03173 17.4089 8.8656 17.5162 8.644L17.4895 9.1896H19.0563V2.59733H17.8229V7.728C17.8229 8.00587 17.5917 8.23333 17.3089 8.23333C17.0278 8.23333 16.7957 8.00587 16.7957 7.728V2.59733H15.5084V7.04373C15.5084 7.61013 15.5189 7.98773 15.5359 8.1792C15.5534 8.36933 15.5976 8.55173 15.6701 8.72853ZM10.922 5.00533C10.922 4.37253 10.9753 3.8784 11.0813 3.52213C11.188 3.1672 11.3796 2.88187 11.6573 2.66667C11.9341 2.4504 12.2885 2.34213 12.7195 2.34213C13.082 2.34213 13.3925 2.41253 13.6518 2.5504C13.9125 2.68907 14.1135 2.86907 14.2529 3.0912C14.3949 3.31413 14.4914 3.5432 14.5429 3.7776C14.5955 4.0152 14.6214 4.3736 14.6214 4.85707V6.52427C14.6214 7.13573 14.5966 7.5856 14.5483 7.8712C14.5006 8.1576 14.3982 8.4232 14.2394 8.67227C14.0831 8.91867 13.8812 9.10293 13.6365 9.22053C13.389 9.3392 13.106 9.39733 12.7863 9.39733C12.4292 9.39733 12.1284 9.34853 11.8804 9.24667C11.6316 9.14533 11.4395 8.99253 11.3025 8.7896C11.1643 8.5864 11.067 8.33893 11.0082 8.0504C10.9492 7.76213 10.9211 7.32853 10.9211 6.75067L10.922 5.00533ZM12.1492 7.624C12.1492 7.99733 12.43 8.30213 12.7721 8.30213C13.1144 8.30213 13.3942 7.99733 13.3942 7.624V4.11467C13.3942 3.74187 13.1144 3.43707 12.7721 3.43707C12.43 3.43707 12.1492 3.74187 12.1492 4.11467V7.624ZM7.81284 9.396H9.29098L9.2926 4.34L11.0392 0.0088H9.42252L8.49396 3.22587L7.5522 0H5.95222L7.81041 4.3424L7.81284 9.396Z" fill="#E73D3D"/>
</g>
<defs>
<clipPath id="clip0">
<rect width="24.2584" height="24" fill="white" transform="translate(0.890625)"/>
</clipPath>
</defs>
</svg>
