<svg width="26" height="24" viewBox="0 0 26 24" fill="none" xmlns="http://www.w3.org/2000/svg">
<g clip-path="url(#clip0)">
<path d="M20.0114 17.5552H18.6801L18.6863 16.7901C18.6863 16.4501 18.9685 16.172 19.3133 16.172H19.3982C19.7437 16.172 20.0267 16.4501 20.0267 16.7901L20.0114 17.5552ZM15.0179 15.9157C14.6802 15.9157 14.4039 16.1403 14.4039 16.4152V20.136C14.4039 20.4104 14.6802 20.6344 15.0179 20.6344C15.357 20.6344 15.6335 20.4104 15.6335 20.136V16.4152C15.6335 16.14 15.357 15.9157 15.0179 15.9157ZM23.1275 13.8344V20.9128C23.1275 22.6107 21.6394 24 19.8203 24H6.21966C4.40002 24 2.91217 22.6107 2.91217 20.9128V13.8344C2.91217 12.1365 4.40002 10.7469 6.21966 10.7469H19.8203C21.6394 10.7469 23.1275 12.1365 23.1275 13.8344ZM7.12693 21.6813L7.12585 14.2251L8.81181 14.2256V13.1208L4.31754 13.1141V14.2003L5.72048 14.2043V21.6813H7.12693ZM12.1808 15.3357H10.7751V19.3173C10.7751 19.8933 10.8104 20.1813 10.773 20.2829C10.6587 20.5917 10.1449 20.9197 9.94467 20.3163C9.91071 20.2107 9.94063 19.892 9.94009 19.3448L9.93443 15.3357H8.53661L8.54092 19.2819C8.542 19.8867 8.52717 20.3376 8.54577 20.5429C8.58 20.9048 8.56788 21.3267 8.90722 21.5677C9.53956 22.0184 10.7517 21.5005 11.0549 20.8563L11.0522 21.6784L12.181 21.6797L12.1808 15.3357ZM16.6774 19.8952L16.6745 16.5813C16.6734 15.3184 15.7184 14.5621 14.4222 15.584L14.4279 13.1203L13.0239 13.1224L13.0171 21.6264L14.1718 21.6099L14.2769 21.0803C15.7521 22.4192 16.6796 21.5016 16.6774 19.8952ZM21.0766 19.456L20.0227 19.4616C20.0221 19.5029 20.0205 19.5507 20.02 19.6027V20.1845C20.02 20.496 19.7599 20.7496 19.444 20.7496H19.2375C18.9211 20.7496 18.661 20.496 18.661 20.1845V20.12V19.48V18.6541H21.0744V17.7555C21.0744 17.0987 21.0574 16.4421 21.0024 16.0667C20.8297 14.8789 19.1445 14.6904 18.2933 15.2984C18.0262 15.4883 17.8222 15.7424 17.7036 16.0837C17.5839 16.4253 17.5243 16.892 17.5243 17.4848V19.4608C17.5249 22.7456 21.5577 22.2813 21.0766 19.456ZM15.6702 8.72853C15.7427 8.90293 15.8554 9.04427 16.0082 9.15093C16.1591 9.256 16.3521 9.3088 16.5834 9.3088C16.7861 9.3088 16.9656 9.25467 17.1219 9.14293C17.2777 9.03173 17.409 8.8656 17.5162 8.644L17.4896 9.1896H19.0564V2.59733H17.823V7.728C17.823 8.00587 17.5917 8.23333 17.309 8.23333C17.0278 8.23333 16.7958 8.00587 16.7958 7.728V2.59733H15.5085V7.04373C15.5085 7.61013 15.519 7.98773 15.536 8.1792C15.5535 8.36933 15.5977 8.55173 15.6702 8.72853ZM10.922 5.00533C10.922 4.37253 10.9754 3.8784 11.0813 3.52213C11.188 3.1672 11.3797 2.88187 11.6573 2.66667C11.9341 2.4504 12.2886 2.34213 12.7196 2.34213C13.0821 2.34213 13.3926 2.41253 13.6519 2.5504C13.9125 2.68907 14.1136 2.86907 14.253 3.0912C14.395 3.31413 14.4915 3.5432 14.543 3.7776C14.5955 4.0152 14.6214 4.3736 14.6214 4.85707V6.52427C14.6214 7.13573 14.5966 7.5856 14.5484 7.8712C14.5007 8.1576 14.3982 8.4232 14.2395 8.67227C14.0832 8.91867 13.8813 9.10293 13.6365 9.22053C13.3891 9.3392 13.1061 9.39733 12.7864 9.39733C12.4293 9.39733 12.1285 9.34853 11.8805 9.24667C11.6317 9.14533 11.4395 8.99253 11.3026 8.7896C11.1643 8.5864 11.067 8.33893 11.0083 8.0504C10.9492 7.76213 10.9212 7.32853 10.9212 6.75067L10.922 5.00533ZM12.1492 7.624C12.1492 7.99733 12.4301 8.30213 12.7721 8.30213C13.1144 8.30213 13.3942 7.99733 13.3942 7.624V4.11467C13.3942 3.74187 13.1144 3.43707 12.7721 3.43707C12.4301 3.43707 12.1492 3.74187 12.1492 4.11467V7.624ZM7.8129 9.396H9.29104L9.29266 4.34L11.0393 0.0088H9.42258L8.49402 3.22587L7.55226 0H5.95228L7.81047 4.3424L7.8129 9.396Z" fill="white"/>
</g>
<defs>
<clipPath id="clip0">
<rect width="24.2584" height="24" fill="white" transform="translate(0.890625)"/>
</clipPath>
</defs>
</svg>
