<svg width="22" height="24" viewBox="0 0 22 24" fill="none" xmlns="http://www.w3.org/2000/svg">
    <path d="M18.0114 17.5552H16.6801L16.6863 16.7901C16.6863 16.4501 16.9685 16.172 17.3133 16.172H17.3982C17.7437 16.172 18.0267 16.4501 18.0267 16.7901L18.0114 17.5552ZM13.0179 15.9157C12.6802 15.9157 12.4039 16.1403 12.4039 16.4152V20.136C12.4039 20.4104 12.6802 20.6344 13.0179 20.6344C13.357 20.6344 13.6335 20.4104 13.6335 20.136V16.4152C13.6335 16.14 13.357 15.9157 13.0179 15.9157ZM21.1275 13.8344V20.9128C21.1275 22.6107 19.6394 24 17.8203 24H4.21966C2.40002 24 0.91217 22.6107 0.91217 20.9128V13.8344C0.91217 12.1365 2.40002 10.7469 4.21966 10.7469H17.8203C19.6394 10.7469 21.1275 12.1365 21.1275 13.8344ZM5.12693 21.6813L5.12585 14.2251L6.81181 14.2256V13.1208L2.31754 13.1141V14.2003L3.72048 14.2043V21.6813H5.12693ZM10.1808 15.3357H8.77512V19.3173C8.77512 19.8933 8.81043 20.1813 8.77296 20.2829C8.65868 20.5917 8.14494 20.9197 7.94467 20.3163C7.91071 20.2107 7.94063 19.892 7.94009 19.3448L7.93443 15.3357H6.53661L6.54092 19.2819C6.542 19.8867 6.52717 20.3376 6.54577 20.5429C6.58 20.9048 6.56788 21.3267 6.90722 21.5677C7.53956 22.0184 8.75167 21.5005 9.0549 20.8563L9.0522 21.6784L10.181 21.6797L10.1808 15.3357ZM14.6774 19.8952L14.6745 16.5813C14.6734 15.3184 13.7184 14.5621 12.4222 15.584L12.4279 13.1203L11.0239 13.1224L11.0171 21.6264L12.1718 21.6099L12.2769 21.0803C13.7521 22.4192 14.6796 21.5016 14.6774 19.8952ZM19.0766 19.456L18.0227 19.4616C18.0221 19.5029 18.0205 19.5507 18.02 19.6027V20.1845C18.02 20.496 17.7599 20.7496 17.444 20.7496H17.2375C16.9211 20.7496 16.661 20.496 16.661 20.1845V20.12V19.48V18.6541H19.0744V17.7555C19.0744 17.0987 19.0574 16.4421 19.0024 16.0667C18.8297 14.8789 17.1445 14.6904 16.2933 15.2984C16.0262 15.4883 15.8222 15.7424 15.7036 16.0837C15.5839 16.4253 15.5243 16.892 15.5243 17.4848V19.4608C15.5249 22.7456 19.5577 22.2813 19.0766 19.456ZM13.6702 8.72853C13.7427 8.90293 13.8554 9.04427 14.0082 9.15093C14.1591 9.256 14.3521 9.3088 14.5834 9.3088C14.7861 9.3088 14.9656 9.25467 15.1219 9.14293C15.2777 9.03173 15.409 8.8656 15.5162 8.644L15.4896 9.1896H17.0564V2.59733H15.823V7.728C15.823 8.00587 15.5917 8.23333 15.309 8.23333C15.0278 8.23333 14.7958 8.00587 14.7958 7.728V2.59733H13.5085V7.04373C13.5085 7.61013 13.519 7.98773 13.536 8.1792C13.5535 8.36933 13.5977 8.55173 13.6702 8.72853ZM8.92202 5.00533C8.92202 4.37253 8.97538 3.8784 9.08131 3.52213C9.18805 3.1672 9.37969 2.88187 9.65731 2.66667C9.93413 2.4504 10.2886 2.34213 10.7196 2.34213C11.0821 2.34213 11.3926 2.41253 11.6519 2.5504C11.9125 2.68907 12.1136 2.86907 12.253 3.0912C12.395 3.31413 12.4915 3.5432 12.543 3.7776C12.5955 4.0152 12.6214 4.3736 12.6214 4.85707V6.52427C12.6214 7.13573 12.5966 7.5856 12.5484 7.8712C12.5007 8.1576 12.3982 8.4232 12.2395 8.67227C12.0832 8.91867 11.8813 9.10293 11.6365 9.22053C11.3891 9.3392 11.1061 9.39733 10.7864 9.39733C10.4293 9.39733 10.1285 9.34853 9.88049 9.24667C9.63171 9.14533 9.43953 8.99253 9.3026 8.7896C9.16433 8.5864 9.06703 8.33893 9.00827 8.0504C8.94924 7.76213 8.92121 7.32853 8.92121 6.75067L8.92202 5.00533ZM10.1492 7.624C10.1492 7.99733 10.4301 8.30213 10.7721 8.30213C11.1144 8.30213 11.3942 7.99733 11.3942 7.624V4.11467C11.3942 3.74187 11.1144 3.43707 10.7721 3.43707C10.4301 3.43707 10.1492 3.74187 10.1492 4.11467V7.624ZM5.8129 9.396H7.29104L7.29266 4.34L9.03926 0.0088H7.42258L6.49402 3.22587L5.55226 0H3.95228L5.81047 4.3424L5.8129 9.396Z" fill="white"/>
</svg>
