<svg width="25" height="22" viewBox="0 0 25 22" fill="none" xmlns="http://www.w3.org/2000/svg">
<rect x="0.5" y="0.5" width="24" height="21" rx="9.5" stroke="#353435"/>
<path d="M14.8358 9.51753C14.3592 9.25413 13.8525 9.05345 13.3508 8.84525C13.0598 8.72484 12.7814 8.58437 12.5355 8.38871C12.0514 8.0024 12.1442 7.37528 12.7111 7.12694C12.8717 7.0567 13.0397 7.03412 13.2103 7.02409C13.8675 6.98897 14.4922 7.10938 15.0867 7.39534C15.3827 7.53833 15.4805 7.49318 15.5808 7.18463C15.6862 6.85853 15.774 6.52741 15.8718 6.1988C15.937 5.97805 15.8568 5.83256 15.6486 5.73974C15.2673 5.57167 14.876 5.45127 14.4646 5.38604C13.9277 5.30326 13.9277 5.30076 13.9252 4.76143C13.9227 4.00136 13.9227 4.00136 13.1601 4.00136C13.0498 4.00136 12.9394 3.99885 12.829 4.00136C12.4728 4.01139 12.4126 4.07411 12.4026 4.43282C12.3976 4.59336 12.4026 4.75391 12.4001 4.91696C12.3976 5.39357 12.3951 5.38604 11.9385 5.55161C10.8348 5.95296 10.1525 6.70551 10.0797 7.90958C10.0145 8.97569 10.5714 9.69563 11.4468 10.2199C11.9862 10.5435 12.5832 10.7341 13.1551 10.9875C13.3784 11.0853 13.5916 11.1982 13.7772 11.3537C14.3266 11.8078 14.2263 12.5628 13.574 12.8488C13.2254 13.0018 12.8566 13.0394 12.4778 12.9918C11.8934 12.919 11.334 12.766 10.8072 12.4926C10.4986 12.3321 10.4083 12.3747 10.303 12.7083C10.2127 12.9968 10.1324 13.2878 10.0521 13.5788C9.94426 13.9701 9.9844 14.0629 10.3582 14.246C10.8348 14.4768 11.344 14.5947 11.8633 14.6775C12.2696 14.7427 12.2822 14.7603 12.2872 15.1817C12.2897 15.3723 12.2897 15.5655 12.2922 15.7561C12.2947 15.997 12.4101 16.1374 12.6584 16.1424C12.9394 16.1475 13.2229 16.1475 13.5038 16.1399C13.7346 16.1349 13.8525 16.0095 13.8525 15.7762C13.8525 15.5153 13.865 15.2519 13.855 14.991C13.8425 14.7251 13.9578 14.5897 14.2137 14.5195C14.8032 14.3589 15.3049 14.0428 15.6912 13.5712C16.7648 12.2668 16.356 10.3579 14.8358 9.51753Z" fill="#353435"/>
</svg>
