<svg width="25" height="22" viewBox="0 0 25 22" fill="none" xmlns="http://www.w3.org/2000/svg">
<rect x="0.5" y="0.5" width="24" height="21" rx="9.5" stroke="#BFA96A"/>
<path d="M15.6466 14.2368C15.631 14.164 15.5919 14.1092 15.5291 14.0724C15.4612 14.0361 15.3931 14.0308 15.3253 14.0569L15.2863 14.0724C15.2653 14.0776 15.2341 14.0855 15.1922 14.096C15.1503 14.1064 15.1022 14.118 15.0473 14.1312C14.9924 14.1443 14.9285 14.1572 14.8553 14.1704C14.7821 14.1836 14.7051 14.1953 14.6242 14.2057C14.5432 14.2161 14.4558 14.2252 14.3617 14.2332C14.2677 14.2409 14.1737 14.2448 14.0797 14.2448C13.4163 14.2448 12.8196 14.066 12.2894 13.708C11.7592 13.3505 11.3688 12.8658 11.1182 12.2549H14.1501C14.2076 12.2549 14.2599 12.2353 14.3069 12.1962C14.3538 12.1569 14.3825 12.1086 14.3931 12.0511L14.5811 11.1737C14.5968 11.0954 14.5811 11.0246 14.5342 10.9623C14.482 10.8995 14.4166 10.868 14.3383 10.868H10.7422C10.7265 10.513 10.7265 10.2388 10.7422 10.0454H14.5655C14.7066 10.0454 14.7901 9.97778 14.8162 9.84196L15.0042 8.94865C15.0199 8.87585 15.0015 8.80781 14.9493 8.74519C14.9024 8.68244 14.8369 8.65117 14.7534 8.65117H11.0869C11.348 8.06599 11.7397 7.60659 12.2621 7.27208C12.7844 6.93782 13.3746 6.77075 14.0327 6.77075C14.1058 6.77075 14.1828 6.77319 14.2638 6.77834C14.3447 6.78386 14.4205 6.79029 14.4911 6.7979C14.5615 6.80586 14.6293 6.81345 14.6947 6.82144C14.76 6.82942 14.8186 6.83854 14.871 6.84897C14.9231 6.85939 14.9689 6.86851 15.0081 6.87622C15.0473 6.88419 15.0773 6.89062 15.0982 6.89577L15.1295 6.90373C15.1973 6.92481 15.26 6.91815 15.3175 6.88419C15.3749 6.85023 15.4115 6.79943 15.4272 6.73151L15.7642 5.48553C15.7799 5.41789 15.772 5.35511 15.7406 5.29764C15.6937 5.23489 15.6413 5.19578 15.584 5.1801C15.1034 5.06009 14.5968 4.99976 14.0641 4.99976C12.894 4.99976 11.8481 5.33427 10.9263 6.00266C10.0044 6.67131 9.36839 7.55397 9.01858 8.65087H8.25079C8.17762 8.65087 8.11756 8.67416 8.07061 8.72123C8.02354 8.7683 8 8.82836 8 8.90153V9.79462C8 9.86779 8.02354 9.92772 8.07061 9.97492C8.11756 10.022 8.17762 10.0453 8.25079 10.0453H8.77578C8.76008 10.2962 8.75739 10.5704 8.76792 10.8679H8.25079C8.18289 10.8679 8.12411 10.893 8.07446 10.9426C8.02482 10.9921 8 11.0509 8 11.1189V12.004C8 12.0723 8.02482 12.1311 8.07446 12.1804C8.12397 12.2303 8.18274 12.2551 8.25079 12.2551H8.99507C9.32418 13.4095 9.94563 14.3273 10.8597 15.0088C11.7737 15.6903 12.8418 16.0312 14.0641 16.0312C14.1633 16.0312 14.2638 16.0288 14.3657 16.0232C14.4675 16.0181 14.5627 16.0104 14.6517 15.9997C14.7405 15.9895 14.828 15.9777 14.9142 15.9644C15.0004 15.9516 15.0787 15.9385 15.1492 15.9252C15.2198 15.9124 15.2863 15.8993 15.3489 15.886C15.4115 15.8732 15.4676 15.8587 15.5174 15.8428C15.5669 15.8272 15.6087 15.8155 15.6428 15.8076C15.6766 15.7998 15.7041 15.7907 15.725 15.7803L15.7641 15.7723C15.8215 15.7514 15.8659 15.7135 15.8973 15.6587C15.9287 15.6039 15.9364 15.5452 15.9208 15.4824L15.6466 14.2368Z" fill="#BFA96A"/>
</svg>
