<svg width="25" height="22" viewBox="0 0 25 22" fill="none" xmlns="http://www.w3.org/2000/svg">
<rect x="0.5" y="0.5" width="24" height="21" rx="9.5" stroke="#353435"/>
<path d="M8.24371 14.0143H9.94922V15.4763C9.94922 15.5475 9.97198 15.6057 10.0178 15.6512C10.0634 15.697 10.1218 15.7199 10.1929 15.7199H11.4644C11.5303 15.7199 11.5874 15.697 11.6357 15.6512C11.6839 15.6057 11.7079 15.5474 11.7079 15.4763V14.0143H15.5529C15.6238 14.0143 15.6822 13.9917 15.728 13.9459C15.7738 13.9001 15.7966 13.8418 15.7966 13.7707V12.7961C15.7966 12.7254 15.7738 12.6667 15.728 12.6212C15.6824 12.5754 15.6238 12.5525 15.5529 12.5525H11.7078V11.654H14.2965C15.3116 11.654 16.1401 11.3447 16.7824 10.7252C17.4244 10.1063 17.7456 9.30691 17.7456 8.32689C17.7456 7.34752 17.4244 6.54808 16.7824 5.92858C16.1402 5.3097 15.3116 4.99976 14.2965 4.99976H10.1928C10.1217 4.99976 10.0634 5.02264 10.0176 5.06818C9.97198 5.11397 9.94909 5.1726 9.94909 5.24334V10.0325H8.24371C8.17259 10.0325 8.11432 10.0566 8.06855 10.1048C8.02291 10.153 8 10.2101 8 10.2761V11.4104C8 11.4815 8.02276 11.5398 8.06855 11.5856C8.11434 11.6314 8.17247 11.654 8.24371 11.654H9.94922V12.5525H8.24371C8.17259 12.5525 8.11432 12.5754 8.06855 12.6212C8.02291 12.6667 8 12.7252 8 12.7961V13.7707C8 13.8418 8.02276 13.9001 8.06855 13.9458C8.11432 13.9917 8.17257 14.0143 8.24371 14.0143ZM11.7078 6.62165H14.1442C14.6822 6.62165 15.1161 6.77894 15.4461 7.09364C15.776 7.40836 15.941 7.81963 15.941 8.32701C15.941 8.83464 15.776 9.24605 15.4461 9.56039C15.1161 9.87536 14.6822 10.0327 14.1442 10.0327H11.7078V6.62165Z" fill="#353435"/>
</svg>
