<svg width="20" height="37" viewBox="0 0 20 37" fill="none" xmlns="http://www.w3.org/2000/svg">
<g opacity="0.6">
<path d="M0.585319 17.6868C1.15991 17.1122 2.09152 17.1122 2.66611 17.6868L19.3125 34.3331C19.8871 34.9077 19.8871 35.8393 19.3125 36.4139C18.7379 36.9885 17.8063 36.9885 17.2317 36.4139L0.585319 19.7676C0.010723 19.193 0.0107227 18.2614 0.585319 17.6868Z" fill="white"/>
<path d="M0.585319 19.7676C0.010723 19.193 0.0107227 18.2614 0.585319 17.6868L17.2317 1.0404C17.8063 0.465802 18.7379 0.465802 19.3125 1.0404C19.8871 1.61499 19.8871 2.5466 19.3125 3.12119L2.66611 19.7676C2.09152 20.3421 1.15991 20.3421 0.585319 19.7676Z" fill="white"/>
</g>
</svg>
