<svg width="20" height="37" viewBox="0 0 20 37" fill="none" xmlns="http://www.w3.org/2000/svg">
<path d="M19.4134 19.3132C18.8388 19.8878 17.9072 19.8878 17.3326 19.3132L0.686287 2.66688C0.111692 2.09228 0.111692 1.16068 0.686287 0.586084C1.26088 0.0114881 2.19249 0.0114881 2.76708 0.586084L19.4134 17.2324C19.988 17.807 19.988 18.7386 19.4134 19.3132Z" fill="white"/>
<path d="M19.4134 17.2324C19.988 17.807 19.988 18.7386 19.4134 19.3132L2.76708 35.9596C2.19249 36.5342 1.26088 36.5342 0.686287 35.9596C0.111691 35.385 0.111691 34.4534 0.686287 33.8788L17.3326 17.2324C17.9072 16.6578 18.8388 16.6578 19.4134 17.2324Z" fill="white"/>
</svg>
