<svg width="14" height="15" viewBox="0 0 14 15" fill="none" xmlns="http://www.w3.org/2000/svg">
<path d="M13.9402 0.549863C13.8275 0.29179 13.6325 0.162737 13.3541 0.162598H0.645582C0.367618 0.162598 0.172281 0.29179 0.0597465 0.549863C-0.052719 0.82115 -0.00643217 1.05297 0.198816 1.24486L5.09378 6.13968V10.965C5.09378 11.1373 5.15668 11.2861 5.2824 11.412L7.824 13.9536C7.94325 14.0792 8.09212 14.1423 8.27091 14.1423C8.35027 14.1423 8.43296 14.1257 8.51903 14.0926C8.77728 13.98 8.90644 13.7848 8.90644 13.5068V6.13971L13.8012 1.24489C14.0065 1.053 14.0527 0.821254 13.9402 0.549863Z" fill="#434343"/>
</svg>
