<svg width="37" height="33" viewBox="0 0 37 33" fill="none" xmlns="http://www.w3.org/2000/svg">
<g filter="url(#filter0_d)">
<path d="M15.1401 22C15.1401 20.8281 14.1691 19.8571 12.9972 19.8571C11.8253 19.8571 10.8544 20.8281 10.8544 22C10.8544 23.1719 11.8253 24.1429 12.9972 24.1429C14.1691 24.1429 15.1401 23.1719 15.1401 22ZM30.1401 22C30.1401 20.8281 29.1691 19.8571 27.9972 19.8571C26.8253 19.8571 25.8544 20.8281 25.8544 22C25.8544 23.1719 26.8253 24.1429 27.9972 24.1429C29.1691 24.1429 30.1401 23.1719 30.1401 22ZM32.2829 3.78571C32.2829 3.19978 31.7974 2.71428 31.2115 2.71428H11.1055C10.9381 1.91071 10.9046 0.571428 9.78292 0.571428H5.49721C4.91127 0.571428 4.42578 1.05692 4.42578 1.64286C4.42578 2.22879 4.91127 2.71428 5.49721 2.71428H8.91239L11.8756 16.4922C11.6077 17.0112 10.8544 18.2667 10.8544 18.7857C10.8544 19.3717 11.3398 19.8571 11.9258 19.8571H29.0686C29.6546 19.8571 30.1401 19.3717 30.1401 18.7857C30.1401 18.1998 29.6546 17.7143 29.0686 17.7143H13.6669C13.8343 17.3795 14.0686 17.0279 14.0686 16.6429C14.0686 16.2411 13.9347 15.856 13.851 15.471L31.3287 13.4286C31.8644 13.3616 32.2829 12.8929 32.2829 12.3571V3.78571Z" fill="#FCFCFB"/>
</g>
<defs>
<filter id="filter0_d" x="0.425781" y="0.571533" width="35.8571" height="31.5714" filterUnits="userSpaceOnUse" color-interpolation-filters="sRGB">
<feBlend mode="normal" in="SourceGraphic" in2="effect1_dropShadow" result="shape"/>
</filter>
</defs>
</svg>
