<svg width="16" height="13" viewBox="0 0 16 13" fill="none" xmlns="http://www.w3.org/2000/svg">
<path d="M13.24 7.83929C13.24 7.82031 13.24 7.80134 13.2305 7.78237L7.77567 3.28571L2.32087 7.78237C2.32087 7.80134 2.31138 7.82031 2.31138 7.83929V12.3929C2.31138 12.7249 2.5865 13 2.91853 13H6.56138V9.35714H8.98996V13H12.6328C12.9648 13 13.24 12.7249 13.24 12.3929V7.83929ZM15.3555 7.18471C15.4598 7.06138 15.4408 6.86217 15.3175 6.75781L13.24 5.03125V1.16071C13.24 0.989955 13.1071 0.857143 12.9364 0.857143H11.115C10.9442 0.857143 10.8114 0.989955 10.8114 1.16071V3.0106L8.49665 1.07533C8.09821 0.743303 7.45313 0.743303 7.05469 1.07533L0.233817 6.75781C0.110491 6.86217 0.0915179 7.06138 0.195871 7.18471L0.78404 7.88672C0.831473 7.94364 0.907366 7.98158 0.983259 7.99107C1.06864 8.00056 1.14453 7.9721 1.21094 7.92467L7.77567 2.45089L14.3404 7.92467C14.3973 7.9721 14.4637 7.99107 14.5396 7.99107C14.5491 7.99107 14.5586 7.99107 14.5681 7.99107C14.644 7.98158 14.7199 7.94364 14.7673 7.88672L15.3555 7.18471Z" fill="#434343" fill-opacity="0.9"/>
</svg>
