<svg width="19" height="19" viewBox="0 0 19 19" fill="none" xmlns="http://www.w3.org/2000/svg">
<path d="M18.8571 15.0357C18.8571 14.942 18.8571 14.8482 18.817 14.7545C18.7232 14.4732 18.067 14.1786 17.7991 14.0446C17.0357 13.6161 16.2589 13.2009 15.5089 12.7589C15.1607 12.5446 14.7321 12.1429 14.317 12.1429C13.5 12.1429 12.308 14.567 11.5848 14.567C11.2232 14.567 10.7545 14.2321 10.433 14.0446C7.99554 12.692 6.30804 11.0045 4.95536 8.56696C4.76786 8.24553 4.43304 7.77678 4.43304 7.41518C4.43304 6.69196 6.85714 5.5 6.85714 4.68303C6.85714 4.26786 6.45536 3.83928 6.24107 3.49107C5.79911 2.74107 5.38393 1.96428 4.95536 1.20089C4.82143 0.933035 4.52679 0.276785 4.24554 0.183035C4.15179 0.142856 4.05804 0.142856 3.96429 0.142856C3.48214 0.142856 2.54464 0.357142 2.10268 0.558035C1.44643 0.839285 1.01786 1.58928 0.683036 2.19196C0.254464 2.98214 0 3.78571 0 4.68303C0 5.92857 0.508929 7.05357 0.924107 8.19196C1.21875 9.00893 1.58036 9.79911 2.03571 10.5357C3.44196 12.8125 6.1875 15.558 8.46429 16.9643C9.20089 17.4196 9.99107 17.7812 10.808 18.0759C11.9464 18.4911 13.0714 19 14.317 19C15.2143 19 16.0179 18.7455 16.808 18.317C17.4107 17.9821 18.1607 17.5536 18.442 16.8973C18.6429 16.4554 18.8571 15.5179 18.8571 15.0357Z" fill="#FCFCFB"/>
</svg>
