<svg width="29" height="28" viewBox="0 0 29 28" fill="none" xmlns="http://www.w3.org/2000/svg">
<path fill-rule="evenodd" clip-rule="evenodd" d="M12.5844 20.0016C16.9999 20.0016 20.5794 16.4196 20.5794 12.001C20.5794 7.58234 16.9999 4.00032 12.5844 4.00032C8.16882 4.00032 4.58932 7.58234 4.58932 12.001C4.58932 16.4196 8.16882 20.0016 12.5844 20.0016ZM12.5844 24.0019C19.2077 24.0019 24.5769 18.6289 24.5769 12.001C24.5769 5.37302 19.2077 0 12.5844 0C5.96105 0 0.591797 5.37302 0.591797 12.001C0.591797 18.6289 5.96105 24.0019 12.5844 24.0019Z" fill="#C0AA70"/>
<path d="M21.0929 17.6867L27.9869 24.5855C28.7675 25.3666 28.7675 26.6331 27.9869 27.4142C27.2063 28.1953 25.9408 28.1953 25.1602 27.4142L18.2662 20.5153L21.0929 17.6867Z" fill="#C0AA70"/>
</svg>
