<svg width="9" height="11" viewBox="0 0 9 11" fill="none" xmlns="http://www.w3.org/2000/svg">
<path d="M8.57143 9.08259C8.57143 7.32143 8.13616 5.28571 6.3817 5.28571C5.83929 5.81473 5.10268 6.14286 4.28571 6.14286C3.46875 6.14286 2.73214 5.81473 2.18973 5.28571C0.435268 5.28571 0 7.32143 0 9.08259C0 10.0603 0.642857 10.8571 1.42634 10.8571H7.14509C7.92857 10.8571 8.57143 10.0603 8.57143 9.08259ZM6.85714 3.14286C6.85714 1.72321 5.70536 0.571428 4.28571 0.571428C2.86607 0.571428 1.71429 1.72321 1.71429 3.14286C1.71429 4.5625 2.86607 5.71429 4.28571 5.71429C5.70536 5.71429 6.85714 4.5625 6.85714 3.14286Z" fill="#434343" fill-opacity="0.9"/>
</svg>
